<svg width="24" height="20" viewBox="0 0 24 20" fill="none" xmlns="http://www.w3.org/2000/svg">
<path d="M15.29 0.969971C15.0583 1.38494 14.8518 1.81349 14.6717 2.2533C12.9016 1.97336 11.0985 1.97336 9.32836 2.2533C9.14821 1.81349 8.94173 1.38494 8.71003 0.969971C7.04261 1.25487 5.42166 1.7651 3.89169 2.48664C1.15579 6.43497 -0.0849645 11.2284 0.391692 16.0083C2.17464 17.3486 4.17573 18.3709 6.30669 19.03C6.79192 18.389 7.22498 17.7102 7.60169 17C6.90645 16.7436 6.2382 16.4193 5.60669 16.0316C5.7799 15.9164 5.94374 15.7877 6.09669 15.6466C7.93823 16.5337 9.95599 16.9943 12 16.9943C14.0441 16.9943 16.0618 16.5337 17.9034 15.6466C18.0667 15.7866 18.23 15.915 18.3934 16.0316C17.7584 16.4162 17.0908 16.7442 16.3984 17.0116C16.7594 17.7379 17.1809 18.4326 17.6584 19.0883C19.7867 18.4315 21.7843 17.409 23.5617 16.0666C24.0498 11.2859 22.808 6.48852 20.0617 2.54497C18.5489 1.8085 16.944 1.27875 15.29 0.969971ZM8.12669 13.2783C7.54287 13.2364 6.99799 12.9699 6.60643 12.5349C6.21487 12.0998 6.00709 11.53 6.02669 10.945C6.00413 10.3592 6.21089 9.78773 6.60304 9.35202C6.99519 8.9163 7.5418 8.65069 8.12669 8.61164C8.71159 8.65069 9.2582 8.9163 9.65034 9.35202C10.0425 9.78773 10.2493 10.3592 10.2267 10.945C10.2493 11.5307 10.0425 12.1022 9.65034 12.5379C9.2582 12.9736 8.71159 13.2393 8.12669 13.2783ZM15.8734 13.2783C15.2895 13.2364 14.7447 12.9699 14.3531 12.5349C13.9615 12.0998 13.7538 11.53 13.7734 10.945C13.7508 10.3592 13.9576 9.78773 14.3497 9.35202C14.7419 8.9163 15.2885 8.65069 15.8734 8.61164C16.4593 8.64777 17.0077 8.91252 17.4005 9.34891C17.7932 9.78529 17.9989 10.3584 17.9734 10.945C17.9989 11.5315 17.7932 12.1046 17.4005 12.541C17.0077 12.9774 16.4593 13.2422 15.8734 13.2783Z" fill="black"/>
</svg>
