<svg width="35" height="35" viewBox="0 0 35 35" fill="none" xmlns="http://www.w3.org/2000/svg">
<g clip-path="url(#clip0_969_14599)">
<path d="M17.5881 30.9578C17.5881 33.189 15.6684 35.0848 13.7196 33.9998L4.70666 28.9817C2.31213 27.6488 0.838135 25.1857 0.838135 22.5198V12.4807C0.838135 9.81485 2.31213 7.35172 4.70666 6.02026L13.7196 0.997765C14.9038 0.342031 16.2349 -0.00195312 17.5881 -0.00195312C18.9414 -0.00195312 20.2725 0.342031 21.4567 0.997765L30.4696 6.01735C32.3092 7.0411 31.712 9.51151 29.8797 10.5469L21.4115 15.3361C19.0825 16.6661 17.5998 19.1803 17.5881 21.7732V30.9563V30.9578ZM33.1001 21.6667C33.6186 21.3648 34.3381 21.7105 34.3381 22.3128V22.5198C34.3381 25.1857 32.8641 27.6488 30.4696 28.9803C27.7634 30.4882 24.1629 32.4948 21.4567 33.9998C21.0998 34.1996 20.6832 33.9255 20.6832 33.5157V31.2596C20.6891 29.708 21.5688 28.2117 22.9438 27.4096C26.3214 25.4832 29.7224 23.5946 33.1001 21.6667ZM33.4395 11.9965C33.84 11.7705 34.3381 12.0213 34.3381 12.4807V14.3007C34.3294 16.2548 33.2224 18.1098 31.5125 19.1044C28.1348 21.0324 24.7338 22.9209 21.3562 24.8488C21.0678 25.0165 20.6832 24.8182 20.6832 24.4842V21.7805C20.6891 20.2055 21.5892 18.7048 22.9831 17.9101L33.4409 11.9965H33.4395Z" fill="black"/>
</g>
<defs>
<clipPath id="clip0_969_14599">
<rect width="33.5" height="35" fill="white" transform="translate(0.838135)"/>
</clipPath>
</defs>
</svg>
