<svg width="153" height="22" viewBox="0 0 153 22" fill="none" xmlns="http://www.w3.org/2000/svg">
<path d="M8.11938 5V7.5H0.713135V5H8.11938ZM2.40845 17V4.13281C2.40845 3.26302 2.57772 2.54167 2.91626 1.96875C3.26001 1.39583 3.72876 0.966145 4.32251 0.679686C4.91626 0.393228 5.59074 0.249999 6.34595 0.249999C6.85636 0.249999 7.32251 0.289062 7.74439 0.367187C8.17147 0.445312 8.48918 0.515625 8.69751 0.578125L8.10376 3.07812C7.97355 3.03646 7.81209 2.9974 7.61938 2.96094C7.43188 2.92448 7.23918 2.90625 7.04126 2.90625C6.55168 2.90625 6.21053 3.02083 6.01782 3.25C5.82511 3.47396 5.72876 3.78906 5.72876 4.19531V17H2.40845ZM13.4807 1V17H10.1526V1H13.4807ZM16.1467 17V5H19.4749V17H16.1467ZM17.8186 3.45312C17.3238 3.45312 16.8993 3.28906 16.5452 2.96094C16.1962 2.6276 16.0217 2.22917 16.0217 1.76562C16.0217 1.30729 16.1962 0.914062 16.5452 0.585938C16.8993 0.252604 17.3238 0.0859367 17.8186 0.0859367C18.3134 0.0859367 18.7353 0.252604 19.0842 0.585938C19.4384 0.914062 19.6155 1.30729 19.6155 1.76562C19.6155 2.22917 19.4384 2.6276 19.0842 2.96094C18.7353 3.28906 18.3134 3.45312 17.8186 3.45312ZM22.1409 21.5V5H25.4221V7.01562H25.5706C25.7164 6.69271 25.9273 6.36458 26.2034 6.03125C26.4846 5.69271 26.8492 5.41146 27.2971 5.1875C27.7502 4.95833 28.3127 4.84375 28.9846 4.84375C29.8596 4.84375 30.6669 5.07292 31.4065 5.53125C32.1461 5.98437 32.7372 6.66927 33.1799 7.58594C33.6226 8.4974 33.844 9.64062 33.844 11.0156C33.844 12.3542 33.6278 13.4844 33.1956 14.4062C32.7685 15.3229 32.1851 16.0182 31.4456 16.4922C30.7112 16.9609 29.8883 17.1953 28.9768 17.1953C28.331 17.1953 27.7815 17.0885 27.3284 16.875C26.8805 16.6615 26.5133 16.3932 26.2268 16.0703C25.9403 15.7422 25.7216 15.4115 25.5706 15.0781H25.469V21.5H22.1409ZM25.3987 11C25.3987 11.7135 25.4976 12.3359 25.6956 12.8672C25.8935 13.3984 26.1799 13.8125 26.5549 14.1094C26.9299 14.401 27.3857 14.5469 27.9221 14.5469C28.4638 14.5469 28.9221 14.3984 29.2971 14.1016C29.6721 13.7995 29.956 13.3828 30.1487 12.8516C30.3466 12.3151 30.4456 11.6979 30.4456 11C30.4456 10.3073 30.3492 9.69792 30.1565 9.17187C29.9638 8.64583 29.6799 8.23437 29.3049 7.9375C28.9299 7.64062 28.469 7.49219 27.9221 7.49219C27.3805 7.49219 26.9221 7.63542 26.5471 7.92187C26.1773 8.20833 25.8935 8.61458 25.6956 9.14062C25.4976 9.66667 25.3987 10.2865 25.3987 11ZM46.0471 8.42187L43.0002 8.60937C42.9482 8.34896 42.8362 8.11458 42.6643 7.90625C42.4924 7.69271 42.2659 7.52344 41.9846 7.39844C41.7086 7.26823 41.3778 7.20312 40.9924 7.20312C40.4768 7.20312 40.0419 7.3125 39.6877 7.53125C39.3336 7.74479 39.1565 8.03125 39.1565 8.39062C39.1565 8.67708 39.2711 8.91927 39.5002 9.11719C39.7294 9.3151 40.1226 9.47396 40.6799 9.59375L42.8518 10.0312C44.0185 10.2708 44.8883 10.6562 45.4612 11.1875C46.0341 11.7187 46.3206 12.4167 46.3206 13.2812C46.3206 14.0677 46.0888 14.7578 45.6252 15.3516C45.1669 15.9453 44.5367 16.4089 43.7346 16.7422C42.9377 17.0703 42.0185 17.2344 40.9768 17.2344C39.3883 17.2344 38.1226 16.9036 37.1799 16.2422C36.2424 15.5755 35.693 14.6693 35.5315 13.5234L38.8049 13.3516C38.9039 13.8359 39.1435 14.2057 39.5237 14.4609C39.9039 14.7109 40.3909 14.8359 40.9846 14.8359C41.568 14.8359 42.0367 14.724 42.3909 14.5C42.7502 14.2708 42.9325 13.9766 42.9377 13.6172C42.9325 13.3151 42.8049 13.0677 42.5549 12.875C42.3049 12.6771 41.9195 12.526 41.3987 12.4219L39.3206 12.0078C38.1487 11.7734 37.2763 11.3672 36.7034 10.7891C36.1357 10.2109 35.8518 9.47396 35.8518 8.57812C35.8518 7.80729 36.0601 7.14323 36.4768 6.58594C36.8987 6.02865 37.4898 5.59896 38.2502 5.29687C39.0159 4.99479 39.9117 4.84375 40.9377 4.84375C42.4534 4.84375 43.6461 5.16406 44.5159 5.80469C45.3909 6.44531 45.9013 7.31771 46.0471 8.42187ZM48.4163 17V5H51.7444V17H48.4163ZM50.0881 3.45312C49.5933 3.45312 49.1689 3.28906 48.8147 2.96094C48.4657 2.6276 48.2913 2.22917 48.2913 1.76562C48.2913 1.30729 48.4657 0.914062 48.8147 0.585938C49.1689 0.252604 49.5933 0.0859367 50.0881 0.0859367C50.5829 0.0859367 51.0048 0.252604 51.3538 0.585938C51.7079 0.914062 51.885 1.30729 51.885 1.76562C51.885 2.22917 51.7079 2.6276 51.3538 2.96094C51.0048 3.28906 50.5829 3.45312 50.0881 3.45312ZM58.8323 17.1953C57.9208 17.1953 57.0953 16.9609 56.3557 16.4922C55.6213 16.0182 55.038 15.3229 54.6057 14.4062C54.1786 13.4844 53.9651 12.3542 53.9651 11.0156C53.9651 9.64062 54.1864 8.4974 54.6292 7.58594C55.0719 6.66927 55.6604 5.98437 56.3948 5.53125C57.1344 5.07292 57.9443 4.84375 58.8245 4.84375C59.4963 4.84375 60.0562 4.95833 60.5042 5.1875C60.9573 5.41146 61.3219 5.69271 61.5979 6.03125C61.8792 6.36458 62.0927 6.69271 62.2385 7.01562H62.3401V1H65.6604V17H62.3792V15.0781H62.2385C62.0823 15.4115 61.8609 15.7422 61.5745 16.0703C61.2932 16.3932 60.926 16.6615 60.4729 16.875C60.025 17.0885 59.4781 17.1953 58.8323 17.1953ZM59.887 14.5469C60.4234 14.5469 60.8765 14.401 61.2463 14.1094C61.6213 13.8125 61.9078 13.3984 62.1057 12.8672C62.3088 12.3359 62.4104 11.7135 62.4104 11C62.4104 10.2865 62.3114 9.66667 62.1135 9.14062C61.9156 8.61458 61.6292 8.20833 61.2542 7.92187C60.8792 7.63542 60.4234 7.49219 59.887 7.49219C59.3401 7.49219 58.8792 7.64062 58.5042 7.9375C58.1292 8.23437 57.8453 8.64583 57.6526 9.17187C57.4599 9.69792 57.3635 10.3073 57.3635 11C57.3635 11.6979 57.4599 12.3151 57.6526 12.8516C57.8505 13.3828 58.1344 13.7995 58.5042 14.1016C58.8792 14.3984 59.3401 14.5469 59.887 14.5469ZM73.8655 17.2344C72.6311 17.2344 71.5686 16.9844 70.678 16.4844C69.7926 15.9792 69.1103 15.2656 68.6311 14.3437C68.1519 13.4167 67.9124 12.3203 67.9124 11.0547C67.9124 9.82031 68.1519 8.73698 68.6311 7.80469C69.1103 6.8724 69.7847 6.14583 70.6545 5.625C71.5295 5.10417 72.5556 4.84375 73.7327 4.84375C74.5243 4.84375 75.2613 4.97135 75.9436 5.22656C76.6311 5.47656 77.2301 5.85417 77.7405 6.35937C78.2561 6.86458 78.6571 7.5 78.9436 8.26562C79.2301 9.02604 79.3733 9.91667 79.3733 10.9375V11.8516H69.2405V9.78906H76.2405C76.2405 9.3099 76.1363 8.88542 75.928 8.51563C75.7196 8.14583 75.4306 7.85677 75.0608 7.64844C74.6962 7.4349 74.2717 7.32812 73.7874 7.32812C73.2821 7.32812 72.8342 7.44531 72.4436 7.67969C72.0582 7.90885 71.7561 8.21875 71.5374 8.60937C71.3186 8.99479 71.2066 9.42448 71.2014 9.89844V11.8594C71.2014 12.4531 71.3108 12.9661 71.5295 13.3984C71.7535 13.8307 72.0686 14.1641 72.4749 14.3984C72.8811 14.6328 73.3629 14.75 73.9202 14.75C74.29 14.75 74.6285 14.6979 74.9358 14.5938C75.2431 14.4896 75.5061 14.3333 75.7249 14.125C75.9436 13.9167 76.1103 13.6615 76.2249 13.3594L79.303 13.5625C79.1467 14.3021 78.8264 14.9479 78.342 15.5C77.8629 16.0469 77.2431 16.474 76.4827 16.7813C75.7275 17.0833 74.8551 17.2344 73.8655 17.2344ZM92.967 17.25C91.842 17.25 90.8733 16.9844 90.0608 16.4531C89.2483 15.9219 88.6233 15.1901 88.1858 14.2578C87.7483 13.3255 87.5295 12.2604 87.5295 11.0625C87.5295 9.84375 87.7535 8.76823 88.2014 7.83594C88.6545 6.89844 89.2847 6.16667 90.092 5.64062C90.9045 5.10937 91.8525 4.84375 92.9358 4.84375C93.7795 4.84375 94.54 5 95.217 5.3125C95.8941 5.625 96.4488 6.0625 96.8811 6.625C97.3134 7.1875 97.5816 7.84375 97.6858 8.59375H95.842C95.7014 8.04687 95.3889 7.5625 94.9045 7.14062C94.4254 6.71354 93.7795 6.5 92.967 6.5C92.2483 6.5 91.6181 6.6875 91.0764 7.0625C90.54 7.43229 90.1207 7.95573 89.8186 8.63281C89.5217 9.30469 89.3733 10.0937 89.3733 11C89.3733 11.9271 89.5191 12.7344 89.8108 13.4219C90.1077 14.1094 90.5243 14.6432 91.0608 15.0234C91.6025 15.4036 92.2379 15.5938 92.967 15.5938C93.4462 15.5938 93.8811 15.5104 94.2717 15.3437C94.6624 15.1771 94.9931 14.9375 95.2639 14.625C95.5347 14.3125 95.7275 13.9375 95.842 13.5H97.6858C97.5816 14.2083 97.3238 14.8464 96.9124 15.4141C96.5061 15.9766 95.967 16.4245 95.2952 16.7578C94.6285 17.0859 93.8525 17.25 92.967 17.25ZM100.381 17V5H102.162V6.8125H102.287C102.506 6.21875 102.902 5.73698 103.475 5.36719C104.048 4.99739 104.694 4.8125 105.412 4.8125C105.548 4.8125 105.717 4.8151 105.92 4.82031C106.123 4.82552 106.277 4.83333 106.381 4.84375V6.71875C106.319 6.70312 106.175 6.67969 105.951 6.64844C105.733 6.61198 105.501 6.59375 105.256 6.59375C104.673 6.59375 104.152 6.71615 103.694 6.96094C103.24 7.20052 102.881 7.53385 102.615 7.96094C102.355 8.38281 102.225 8.86458 102.225 9.40625V17H100.381ZM110.119 21.5C109.807 21.5 109.528 21.474 109.283 21.4219C109.039 21.375 108.869 21.3281 108.776 21.2813L109.244 19.6563C109.692 19.7708 110.088 19.8125 110.432 19.7812C110.776 19.75 111.08 19.5964 111.346 19.3203C111.617 19.0495 111.864 18.6094 112.088 18L112.432 17.0625L107.994 5H109.994L113.307 14.5625H113.432L116.744 5H118.744L113.651 18.75C113.421 19.3698 113.138 19.8828 112.799 20.2891C112.461 20.7005 112.067 21.0052 111.619 21.2031C111.177 21.401 110.677 21.5 110.119 21.5ZM121.178 21.5V5H122.959V6.90625H123.178C123.313 6.69792 123.501 6.43229 123.74 6.10937C123.985 5.78125 124.334 5.48958 124.787 5.23438C125.246 4.97396 125.865 4.84375 126.647 4.84375C127.657 4.84375 128.548 5.09635 129.319 5.60156C130.089 6.10677 130.691 6.82292 131.123 7.75C131.556 8.67708 131.772 9.77083 131.772 11.0313C131.772 12.3021 131.556 13.4036 131.123 14.3359C130.691 15.263 130.092 15.9818 129.326 16.4922C128.561 16.9974 127.678 17.25 126.678 17.25C125.907 17.25 125.29 17.1224 124.826 16.8672C124.363 16.6068 124.006 16.3125 123.756 15.9844C123.506 15.651 123.313 15.375 123.178 15.1562H123.022V21.5H121.178ZM122.99 11C122.99 11.9062 123.123 12.7057 123.389 13.3984C123.655 14.0859 124.043 14.625 124.553 15.0156C125.063 15.401 125.688 15.5938 126.428 15.5938C127.199 15.5938 127.842 15.3906 128.358 14.9844C128.878 14.5729 129.269 14.0208 129.53 13.3281C129.795 12.6302 129.928 11.8542 129.928 11C129.928 10.1562 129.798 9.39583 129.537 8.71875C129.282 8.03646 128.894 7.4974 128.373 7.10156C127.858 6.70052 127.209 6.5 126.428 6.5C125.678 6.5 125.048 6.6901 124.537 7.07031C124.027 7.44531 123.642 7.97135 123.381 8.64844C123.121 9.32031 122.99 10.1042 122.99 11ZM139.803 5V6.5625H133.584V5H139.803ZM135.397 2.125H137.24V13.5625C137.24 14.0833 137.316 14.474 137.467 14.7344C137.623 14.9896 137.821 15.1615 138.061 15.25C138.306 15.3333 138.563 15.375 138.834 15.375C139.037 15.375 139.204 15.3646 139.334 15.3437C139.464 15.3177 139.569 15.2969 139.647 15.2812L140.022 16.9375C139.897 16.9844 139.722 17.0313 139.498 17.0781C139.274 17.1302 138.99 17.1563 138.647 17.1563C138.126 17.1563 137.615 17.0443 137.115 16.8203C136.621 16.5964 136.209 16.2552 135.881 15.7969C135.558 15.3385 135.397 14.7604 135.397 14.0625V2.125ZM147.323 17.25C146.239 17.25 145.289 16.9922 144.471 16.4766C143.658 15.9609 143.023 15.2396 142.565 14.3125C142.112 13.3854 141.885 12.3021 141.885 11.0625C141.885 9.8125 142.112 8.72135 142.565 7.78906C143.023 6.85677 143.658 6.13281 144.471 5.61719C145.289 5.10156 146.239 4.84375 147.323 4.84375C148.406 4.84375 149.354 5.10156 150.166 5.61719C150.984 6.13281 151.619 6.85677 152.073 7.78906C152.531 8.72135 152.76 9.8125 152.76 11.0625C152.76 12.3021 152.531 13.3854 152.073 14.3125C151.619 15.2396 150.984 15.9609 150.166 16.4766C149.354 16.9922 148.406 17.25 147.323 17.25ZM147.323 15.5938C148.145 15.5938 148.823 15.3828 149.354 14.9609C149.885 14.5391 150.278 13.9844 150.533 13.2969C150.789 12.6094 150.916 11.8646 150.916 11.0625C150.916 10.2604 150.789 9.51302 150.533 8.82031C150.278 8.1276 149.885 7.56771 149.354 7.14062C148.823 6.71354 148.145 6.5 147.323 6.5C146.5 6.5 145.823 6.71354 145.291 7.14062C144.76 7.56771 144.367 8.1276 144.112 8.82031C143.856 9.51302 143.729 10.2604 143.729 11.0625C143.729 11.8646 143.856 12.6094 144.112 13.2969C144.367 13.9844 144.76 14.5391 145.291 14.9609C145.823 15.3828 146.5 15.5938 147.323 15.5938Z" fill="black"/>
</svg>
