<svg width="25" height="20" viewBox="0 0 25 20" fill="none" xmlns="http://www.w3.org/2000/svg">
<g clip-path="url(#clip0_705_12680)">
<path d="M24.0625 0.178711H16.5625C16.0475 0.178711 15.3263 0.472126 14.9625 0.829381L5.66378 9.96208C5.48845 10.1351 5.39001 10.3693 5.39001 10.6134C5.39001 10.8575 5.48845 11.0916 5.66378 11.2646L13.7125 19.1697C13.8887 19.3419 14.1271 19.4386 14.3757 19.4386C14.6242 19.4386 14.8626 19.3419 15.0388 19.1697L24.3375 10.037C24.7025 9.67849 25 8.97135 25 8.46554V1.09947C24.9994 0.855469 24.9004 0.621646 24.7247 0.449111C24.549 0.276575 24.311 0.179359 24.0625 0.178711V0.178711ZM19.375 7.54478C19.1287 7.5447 18.8848 7.49697 18.6573 7.40432C18.4298 7.31167 18.2231 7.17592 18.0489 7.0048C17.8748 6.83369 17.7367 6.63057 17.6426 6.40704C17.5484 6.18351 17.5 5.94395 17.5 5.70204C17.5001 5.46012 17.5487 5.2206 17.643 4.99713C17.7374 4.77366 17.8756 4.57063 18.0498 4.39963C18.2241 4.22863 18.4309 4.09301 18.6585 4.00051C18.8861 3.90801 19.13 3.86044 19.3763 3.86052C19.8737 3.86068 20.3507 4.05492 20.7024 4.4005C21.054 4.74608 21.2514 5.2147 21.2513 5.70326C21.2511 6.19183 21.0533 6.66032 20.7015 7.00567C20.3496 7.35102 19.8725 7.54495 19.375 7.54478Z" fill="black"/>
<path d="M2.50003 10.614L13.125 0.178711H11.5625C11.0475 0.178711 10.3263 0.472126 9.96253 0.829381L0.663783 9.96208C0.488448 10.1351 0.390015 10.3693 0.390015 10.6134C0.390015 10.8575 0.488448 11.0916 0.663783 11.2646L8.71253 19.1697C8.88869 19.3419 9.12712 19.4386 9.37566 19.4386C9.6242 19.4386 9.86263 19.3419 10.0388 19.1697L10.6263 18.5927L2.50128 10.6128L2.50003 10.614Z" fill="black"/>
</g>
<defs>
<clipPath id="clip0_705_12680">
<rect width="25" height="19.6429" fill="white" transform="translate(0 0.178711)"/>
</clipPath>
</defs>
</svg>
