<svg width="81" height="80" viewBox="0 0 81 80" fill="none" xmlns="http://www.w3.org/2000/svg">
<path d="M59.8023 28.4825C64.181 28.4825 67.7256 24.934 67.7256 20.5506C67.7256 16.1673 64.181 12.6188 59.8023 12.6188C55.4237 12.6188 51.879 16.1673 51.879 20.5506C51.879 24.934 55.4237 28.4825 59.8023 28.4825ZM71.4408 12.8655C73.6396 12.8655 75.4025 11.0818 75.4025 8.89959C75.4025 6.69841 73.6207 4.93367 71.4408 4.93367C69.242 4.93367 67.4792 6.71739 67.4792 8.89959C67.4602 11.0818 69.242 12.8655 71.4408 12.8655ZM32.014 28.8051C32.9996 40.3992 43.1975 49.0142 54.7792 48.0274C64.1431 47.2304 71.5545 40.4182 73.5448 31.7083C70.8153 33.7957 67.4602 35.1429 63.7829 35.4655C53.4523 36.3384 44.3728 28.6722 43.5008 18.3305C43.1596 14.2507 44.1453 10.3607 46.0977 7.0969C37.2077 10.1899 31.1799 18.9946 32.014 28.8051ZM79.9707 38.3498C74.8148 51.3102 61.224 59.4508 46.8938 57.1927C30.2511 54.574 18.878 38.9191 21.4938 22.2585C23.0481 12.3721 29.1707 4.34543 37.3783 0C19.1244 1.19547 3.44844 14.8769 0.491426 33.7198C-2.93947 55.5608 11.9593 76.0734 33.7768 79.508C55.5943 82.9426 76.0848 68.0278 79.5157 46.1868C79.9328 43.5302 80.0844 40.9115 79.9707 38.3498Z" fill="url(#paint0_linear_969_14576)"/>
<defs>
<linearGradient id="paint0_linear_969_14576" x1="70.4261" y1="7.04936" x2="17.1433" y2="64.5544" gradientUnits="userSpaceOnUse">
<stop offset="0.00837989" stop-color="#FFF100"/>
<stop offset="0.1212" stop-color="#FDDB0A"/>
<stop offset="0.3549" stop-color="#F9A322"/>
<stop offset="0.3827" stop-color="#F89C25"/>
<stop offset="0.7503" stop-color="#D76062"/>
<stop offset="1" stop-color="#BF358E"/>
</linearGradient>
</defs>
</svg>
