<svg width="17" height="16" viewBox="0 0 17 16" fill="none" xmlns="http://www.w3.org/2000/svg">
<path d="M0.474976 9.98324C1.01664 9.95824 1.47498 9.7499 1.84998 9.35824C2.22498 8.96657 2.41664 8.4999 2.41664 7.95824C2.41664 8.4999 2.59998 8.96657 2.97498 9.35824C3.34998 9.7499 3.80831 9.95824 4.34998 9.98324C3.80831 10.0082 3.34998 10.2166 2.97498 10.6082C2.79367 10.7929 2.65094 11.0118 2.55508 11.2521C2.45922 11.4925 2.41216 11.7495 2.41664 12.0082C2.41664 11.4666 2.23331 10.9999 1.84998 10.6082C1.47498 10.2166 1.01664 10.0082 0.474976 9.98324V9.98324ZM2.41664 3.98324C3.46664 3.93324 4.35831 3.5249 5.09164 2.75824C5.82498 1.99157 6.19164 1.08324 6.19164 0.0249023C6.19164 1.08324 6.55831 1.99157 7.29164 2.75824C8.02498 3.5249 8.91664 3.9249 9.97498 3.98324C9.28331 4.01657 8.64998 4.20824 8.06664 4.5749C7.49164 4.93324 7.03331 5.41657 6.69164 6.01657C6.35831 6.61657 6.19164 7.25824 6.19164 7.95824C6.19164 6.8999 5.82498 5.98324 5.09164 5.21657C4.35831 4.44157 3.46664 4.03324 2.41664 3.98324ZM5.18331 12.9582C5.97498 12.9249 6.64998 12.6166 7.19998 12.0416C7.74998 11.4666 8.02498 10.7832 8.02498 9.98324C8.02498 10.7832 8.29998 11.4666 8.84998 12.0416C9.39998 12.6166 10.0666 12.9249 10.8583 12.9582C10.0666 12.9916 9.39998 13.2999 8.84998 13.8749C8.29998 14.4499 8.02498 15.1332 8.02498 15.9332C8.02498 15.1332 7.74998 14.4499 7.19998 13.8749C6.6743 13.3162 5.94986 12.987 5.18331 12.9582V12.9582ZM10.8583 9.00824C11.65 8.9749 12.3166 8.66657 12.8666 8.09157C13.4166 7.51657 13.6833 6.83324 13.6833 6.0249C13.6833 6.8249 13.9583 7.50824 14.5083 8.08324C15.0583 8.65824 15.7333 8.96657 16.525 8.9999C15.7333 9.03324 15.0583 9.34157 14.5083 9.91657C13.9583 10.4916 13.6833 11.1749 13.6833 11.9749C13.6833 11.1749 13.4083 10.4916 12.8666 9.91657C12.3166 9.3499 11.65 9.04157 10.8583 9.00824V9.00824Z" fill="black"/>
</svg>
