<svg width="28" height="28" viewBox="0 0 28 28" fill="none" xmlns="http://www.w3.org/2000/svg">
<g clip-path="url(#clip0_212_79)">
<path d="M5.81925 13.3313C5.81922 13.175 5.85008 13.0201 5.91005 12.8757C5.97001 12.7313 6.05791 12.6002 6.16869 12.4899C6.27946 12.3796 6.41094 12.2922 6.55556 12.2329C6.70018 12.1735 6.85509 12.1434 7.0114 12.1441L8.98786 12.1506C9.30301 12.1506 9.60524 12.2758 9.82808 12.4987C10.0509 12.7216 10.1761 13.024 10.1761 13.3392V20.8156C10.3988 20.7496 10.6843 20.6793 10.9971 20.6059C11.2143 20.5547 11.4079 20.4317 11.5464 20.2567C11.685 20.0818 11.7604 19.8651 11.7605 19.6419V10.3681C11.7604 10.212 11.7912 10.0574 11.8509 9.91315C11.9106 9.7689 11.9981 9.63784 12.1085 9.52743C12.2188 9.41703 12.3498 9.32945 12.494 9.26969C12.6382 9.20993 12.7927 9.17917 12.9488 9.17916H14.9292C15.2443 9.17921 15.5465 9.30446 15.7693 9.52737C15.9922 9.75027 16.1174 10.0526 16.1174 10.3678V18.9755C16.1174 18.9755 16.613 18.7747 17.0962 18.5707C17.2756 18.4948 17.4286 18.3677 17.5363 18.2053C17.644 18.043 17.7015 17.8525 17.7017 17.6576V7.39593C17.7017 7.23983 17.7324 7.08526 17.7921 6.94105C17.8518 6.79683 17.9393 6.6658 18.0496 6.55542C18.16 6.44504 18.291 6.35748 18.4351 6.29775C18.5793 6.23801 18.7338 6.20726 18.8898 6.20726H20.8702C21.1853 6.20726 21.4876 6.33249 21.7104 6.55541C21.9333 6.77832 22.0585 7.08066 22.0585 7.39593V15.8459C23.7755 14.6011 25.5156 13.1039 26.8964 11.3037C27.0968 11.0424 27.2293 10.7356 27.2823 10.4105C27.3353 10.0855 27.307 9.75241 27.2 9.44098C26.2657 6.71709 24.5131 4.34838 22.1819 2.65872C19.8508 0.969069 17.0548 0.040949 14.1763 0.00126922C6.41427 -0.103038 -0.00063429 6.23539 0.000128199 14.0011C-0.00749317 16.4585 0.633638 18.8742 1.85869 21.0042C2.02764 21.2955 2.27618 21.5326 2.57513 21.6875C2.87408 21.8424 3.21102 21.9088 3.54637 21.8788C3.92103 21.8458 4.38749 21.7992 4.94201 21.7341C5.18336 21.7066 5.40619 21.5913 5.56805 21.4101C5.7299 21.2289 5.81948 20.9944 5.81972 20.7514V13.3313" fill="#21325B"/>
<path d="M5.77616 25.3217C7.86365 26.8408 10.3306 27.7527 12.9039 27.9564C15.4773 28.16 18.0569 27.6476 20.3572 26.4758C22.6576 25.3039 24.589 23.5184 25.9379 21.3166C27.2867 19.1148 28.0004 16.5827 28 14.0004C28 13.678 27.9851 13.3593 27.9635 13.0422C22.8508 20.6698 13.4109 24.2357 5.77606 25.322" fill="#979695"/>
</g>
<defs>
<clipPath id="clip0_212_79">
<rect width="28" height="28" fill="white"/>
</clipPath>
</defs>
</svg>
