<svg width="26" height="22" viewBox="0 0 26 22" fill="none" xmlns="http://www.w3.org/2000/svg">
<path d="M8.34246 17.4168C6.94337 17.4168 5.81138 18.3793 5.81138 19.5557C5.81138 20.7321 6.94337 21.6946 8.34246 21.6946C9.74155 21.6946 10.8863 20.7321 10.8863 19.5557C10.8863 18.3793 9.74155 17.4168 8.34246 17.4168ZM21.0615 17.4168C19.6624 17.4168 18.5304 18.3793 18.5304 19.5557C18.5304 20.7321 19.6624 21.6946 21.0615 21.6946C22.4605 21.6946 23.6052 20.7321 23.6052 19.5557C23.6052 18.3793 22.4605 17.4168 21.0615 17.4168ZM23.6052 15.2779C23.6052 14.6897 23.0329 14.2084 22.3334 14.2084H8.34246L9.74155 12.0696H19.2172C20.1711 12.0696 21.0106 11.6311 21.443 10.968L25.564 4.40164C25.7194 4.15436 25.7532 3.86566 25.658 3.59766C25.5629 3.32965 25.3464 3.10376 25.0552 2.96858C24.9077 2.90066 24.7456 2.8581 24.5784 2.84341C24.4111 2.82871 24.242 2.84216 24.081 2.88297C23.92 2.92379 23.7703 2.99115 23.6406 3.08113C23.5108 3.17111 23.4037 3.2819 23.3254 3.40705L19.2172 9.93067H10.2885L5.21358 0.915249C5.11136 0.732701 4.94941 0.578417 4.74668 0.47046C4.54395 0.362502 4.30884 0.30534 4.06887 0.305665H1.98296C1.28341 0.305665 0.71106 0.786915 0.71106 1.37511C0.71106 1.9633 1.28341 2.44455 1.98296 2.44455H3.25486L7.8337 10.5616L6.11663 13.1711C5.18815 14.6041 6.40917 16.3473 8.34246 16.3473H22.3334C23.0329 16.3473 23.6052 15.8661 23.6052 15.2779ZM13.7989 1.06497C13.9166 0.96583 14.0563 0.887175 14.2102 0.833508C14.3641 0.779842 14.529 0.752218 14.6956 0.752218C14.8622 0.752218 15.0271 0.779842 15.181 0.833508C15.3348 0.887175 15.4746 0.96583 15.5923 1.06497L18.8865 3.83483C19.3825 4.25192 19.3825 4.92567 18.8865 5.34275L15.5923 8.11261C15.4745 8.21162 15.3347 8.29016 15.1809 8.34375C15.027 8.39733 14.8621 8.42491 14.6956 8.42491C14.5291 8.42491 14.3642 8.39733 14.2103 8.34375C14.0565 8.29016 13.9167 8.21162 13.7989 8.11261C13.6812 8.0136 13.5877 7.89606 13.524 7.76669C13.4603 7.63733 13.4275 7.49867 13.4275 7.35865C13.4275 7.21863 13.4603 7.07998 13.524 6.95061C13.5877 6.82125 13.6812 6.7037 13.7989 6.60469L14.9182 5.65289H10.8863C10.1867 5.65289 9.61436 5.17164 9.61436 4.58344C9.61436 3.99525 10.1867 3.514 10.8863 3.514H14.9182L13.7989 2.57289C13.681 2.47395 13.5875 2.35643 13.5236 2.22706C13.4598 2.09768 13.4269 1.95899 13.4269 1.81893C13.4269 1.67887 13.4598 1.54018 13.5236 1.4108C13.5875 1.28143 13.681 1.16391 13.7989 1.06497Z" fill="black"/>
</svg>
