<svg width="36" height="36" viewBox="0 0 36 36" fill="none" xmlns="http://www.w3.org/2000/svg">
<path fill-rule="evenodd" clip-rule="evenodd" d="M23.2965 13.8286C23.4012 13.9331 23.4843 14.0572 23.5411 14.1939C23.5978 14.3306 23.627 14.4771 23.627 14.6251C23.627 14.773 23.5978 14.9196 23.5411 15.0562C23.4843 15.1929 23.4012 15.3171 23.2965 15.4216L16.5465 22.1716C16.442 22.2763 16.3178 22.3594 16.1811 22.4162C16.0445 22.4729 15.8979 22.5021 15.75 22.5021C15.602 22.5021 15.4555 22.4729 15.3188 22.4162C15.1821 22.3594 15.058 22.2763 14.9535 22.1716L11.5785 18.7966C11.4739 18.692 11.3909 18.5678 11.3343 18.4311C11.2777 18.2945 11.2485 18.148 11.2485 18.0001C11.2485 17.8521 11.2777 17.7057 11.3343 17.569C11.3909 17.4323 11.4739 17.3082 11.5785 17.2036C11.6831 17.099 11.8072 17.016 11.9439 16.9594C12.0806 16.9028 12.227 16.8736 12.375 16.8736C12.5229 16.8736 12.6694 16.9028 12.806 16.9594C12.9427 17.016 13.0669 17.099 13.1715 17.2036L15.75 19.7843L21.7035 13.8286C21.808 13.7238 21.9321 13.6407 22.0688 13.584C22.2055 13.5272 22.352 13.498 22.5 13.498C22.6479 13.498 22.7945 13.5272 22.9311 13.584C23.0678 13.6407 23.192 13.7238 23.2965 13.8286Z" fill="black"/>
<path d="M23.114 5.6539L21.0418 3.5299L22.6505 1.9594L24.05 3.39265L26.0525 3.3679C26.9193 3.35764 27.7794 3.52081 28.5823 3.8478C29.3851 4.1748 30.1145 4.65902 30.7274 5.27199C31.3404 5.88496 31.8246 6.61431 32.1516 7.41714C32.4786 8.21998 32.6418 9.08009 32.6315 9.9469L32.609 11.9494L34.04 13.3489C34.6598 13.9545 35.1523 14.6779 35.4885 15.4766C35.8248 16.2753 35.998 17.1331 35.998 17.9997C35.998 18.8662 35.8248 19.724 35.4885 20.5227C35.1523 21.3214 34.6598 22.0448 34.04 22.6504L32.6068 24.0499L32.6315 26.0524C32.6418 26.9192 32.4786 27.7793 32.1516 28.5822C31.8246 29.385 31.3404 30.1143 30.7274 30.7273C30.1145 31.3403 29.3851 31.8245 28.5823 32.1515C27.7794 32.4785 26.9193 32.6417 26.0525 32.6314L24.05 32.6089L22.6505 34.0399C22.0449 34.6597 21.3215 35.1522 20.5228 35.4884C19.7242 35.8246 18.8663 35.9978 17.9998 35.9978C17.1332 35.9978 16.2754 35.8246 15.4767 35.4884C14.6781 35.1522 13.9547 34.6597 13.349 34.0399L11.9495 32.6067L9.94703 32.6314C9.08021 32.6417 8.2201 32.4785 7.41726 32.1515C6.61443 31.8245 5.88508 31.3403 5.27211 30.7273C4.65914 30.1143 4.17492 29.385 3.84792 28.5822C3.52093 27.7793 3.35777 26.9192 3.36803 26.0524L3.39053 24.0499L1.95953 22.6504C1.33974 22.0448 0.847262 21.3214 0.511028 20.5227C0.174793 19.724 0.00158691 18.8662 0.00158691 17.9997C0.00158691 17.1331 0.174793 16.2753 0.511028 15.4766C0.847262 14.6779 1.33974 13.9545 1.95953 13.3489L3.39278 11.9494L3.36803 9.9469C3.35777 9.08009 3.52093 8.21998 3.84792 7.41714C4.17492 6.61431 4.65914 5.88496 5.27211 5.27199C5.88508 4.65902 6.61443 4.1748 7.41726 3.8478C8.2201 3.52081 9.08021 3.35764 9.94703 3.3679L11.9495 3.3904L13.349 1.9594C13.9547 1.33962 14.6781 0.84714 15.4767 0.510906C16.2754 0.174671 17.1332 0.00146484 17.9998 0.00146484C18.8663 0.00146484 19.7242 0.174671 20.5228 0.510906C21.3215 0.84714 22.0449 1.33962 22.6505 1.9594L21.0418 3.5299C20.6457 3.12442 20.1725 2.80222 19.6501 2.58224C19.1277 2.36226 18.5666 2.24893 17.9998 2.24893C17.4329 2.24893 16.8718 2.36226 16.3494 2.58224C15.827 2.80222 15.3539 3.12442 14.9578 3.5299L12.8878 5.6539L9.91778 5.6179C9.35118 5.61157 8.78902 5.71853 8.26435 5.93252C7.73967 6.1465 7.26304 6.46318 6.86248 6.86395C6.46191 7.26473 6.14548 7.74152 5.93177 8.26631C5.71807 8.7911 5.61139 9.35331 5.61803 9.9199L5.65403 12.8854L3.53003 14.9577C3.12455 15.3537 2.80234 15.8269 2.58236 16.3493C2.36238 16.8717 2.24906 17.4328 2.24906 17.9997C2.24906 18.5665 2.36238 19.1276 2.58236 19.65C2.80234 20.1724 3.12455 20.6456 3.53003 21.0417L5.65403 23.1117L5.61803 26.0817C5.61169 26.6483 5.71866 27.2104 5.93264 27.7351C6.14662 28.2598 6.4633 28.7364 6.86407 29.137C7.26485 29.5375 7.74164 29.8539 8.26643 30.0677C8.79122 30.2814 9.35343 30.388 9.92002 30.3814L12.8855 30.3454L14.9578 32.4694C15.3539 32.8749 15.827 33.1971 16.3494 33.4171C16.8718 33.637 17.4329 33.7504 17.9998 33.7504C18.5666 33.7504 19.1277 33.637 19.6501 33.4171C20.1725 33.1971 20.6457 32.8749 21.0418 32.4694L23.1118 30.3454L26.0818 30.3814C26.6484 30.3877 27.2105 30.2808 27.7352 30.0668C28.2599 29.8528 28.7365 29.5361 29.1371 29.1354C29.5376 28.7346 29.8541 28.2578 30.0678 27.733C30.2815 27.2082 30.3882 26.646 30.3815 26.0794L30.3455 23.1139L32.4695 21.0417C32.875 20.6456 33.1972 20.1724 33.4172 19.65C33.6372 19.1276 33.7505 18.5665 33.7505 17.9997C33.7505 17.4328 33.6372 16.8717 33.4172 16.3493C33.1972 15.8269 32.875 15.3537 32.4695 14.9577L30.3455 12.8877L30.3815 9.91765C30.3879 9.35105 30.2809 8.7889 30.0669 8.26422C29.8529 7.73954 29.5363 7.26292 29.1355 6.86235C28.7347 6.46179 28.2579 6.14536 27.7331 5.93165C27.2083 5.71794 26.6461 5.61127 26.0795 5.6179L23.114 5.6539Z" fill="black"/>
</svg>
