<svg width="28" height="24" viewBox="0 0 28 24" fill="none" xmlns="http://www.w3.org/2000/svg">
<path d="M8.7955 23.25C19.362 23.25 25.1423 14.4947 25.1423 6.91549C25.1423 6.67049 25.1423 6.42199 25.1318 6.17699C26.2571 5.36234 27.2284 4.35376 28 3.19849C26.9488 3.66198 25.8348 3.96745 24.6943 4.10499C25.8957 3.38686 26.7955 2.25694 27.2265 0.925242C26.0977 1.59396 24.8623 2.0634 23.5742 2.31299C22.7083 1.39078 21.5625 0.779848 20.3141 0.574818C19.0658 0.369787 17.7848 0.582105 16.6693 1.17888C15.5539 1.77566 14.6664 2.72359 14.1443 3.87585C13.6222 5.0281 13.4946 6.32037 13.7812 7.55249C11.497 7.43796 9.26243 6.84456 7.22232 5.81079C5.18222 4.77702 3.3822 3.32597 1.939 1.55174C1.20635 2.81714 0.982754 4.31394 1.31363 5.73821C1.64451 7.16247 2.50505 8.40742 3.7205 9.22024C2.80969 9.1893 1.91891 8.94472 1.12 8.50624V8.58499C1.12157 9.91058 1.58079 11.195 2.42003 12.2211C3.25927 13.2472 4.42706 13.952 5.726 14.2165C5.23296 14.3523 4.72365 14.42 4.21225 14.4177C3.85172 14.4188 3.49192 14.3854 3.13775 14.318C3.50488 15.4591 4.21973 16.4568 5.18218 17.1713C6.14464 17.8859 7.30649 18.2815 8.505 18.3027C6.46897 19.9019 3.95395 20.7692 1.365 20.765C0.908811 20.7669 0.45294 20.7406 0 20.6862C2.62765 22.3615 5.67927 23.251 8.7955 23.25Z" fill="black"/>
</svg>
