<svg width="28" height="28" viewBox="0 0 28 28" fill="none" xmlns="http://www.w3.org/2000/svg">
<g clip-path="url(#clip0_212_85)">
<path d="M20.6733 24.8889H6.67335C6.46707 24.8889 6.26924 24.9709 6.12337 25.1167C5.97751 25.2626 5.89557 25.4604 5.89557 25.6667C5.89557 25.873 5.97751 26.0708 6.12337 26.2167C6.26924 26.3625 6.46707 26.4445 6.67335 26.4445H20.6733C20.8796 26.4445 21.0775 26.3625 21.2233 26.2167C21.3692 26.0708 21.4511 25.873 21.4511 25.6667C21.4511 25.4604 21.3692 25.2626 21.2233 25.1167C21.0775 24.9709 20.8796 24.8889 20.6733 24.8889Z" fill="black"/>
<path d="M13.8055 1.55567C10.9176 1.55567 8.148 2.70288 6.10594 4.74495C4.06388 6.78701 2.91666 9.55664 2.91666 12.4446C2.91666 12.7946 2.91666 13.1368 2.9711 13.479C3.17153 15.5792 3.97775 17.5759 5.29177 19.2265C6.60579 20.8771 8.371 22.1104 10.3728 22.7765C12.3747 23.4426 14.5269 23.5128 16.5679 22.9786C18.6089 22.4444 20.4507 21.3288 21.8695 19.7674C23.2883 18.206 24.223 16.266 24.5599 14.1834C24.8968 12.1007 24.6214 9.965 23.7672 8.03591C22.9131 6.10682 21.5169 4.46741 19.7484 3.31699C17.9799 2.16656 15.9153 1.55466 13.8055 1.55567ZM13.8055 3.11122C16.2648 3.11336 18.6239 4.08605 20.37 5.81789V6.59566C17.2959 5.53775 13.9542 5.55145 10.8889 6.63455C10.644 6.39593 10.3366 6.23145 10.0022 6.16011H9.80777C9.71443 5.83344 9.62888 5.50678 9.55888 5.17233C9.48888 4.83789 9.44999 4.54233 9.4111 4.22344C10.7613 3.49479 12.2713 3.11263 13.8055 3.11122ZM11.4722 7.67678C14.2969 6.73089 17.3581 6.76652 20.16 7.77789C19.781 9.75391 18.9535 11.6166 17.7411 13.2223C17.402 13.0787 17.0266 13.0442 16.667 13.1237C16.3074 13.2031 15.9815 13.3926 15.7344 13.6657C15.4622 13.5101 15.19 13.3546 14.9567 13.1757C13.3866 12.1281 12.0753 10.7371 11.1222 9.10789C11.2763 8.91687 11.3884 8.6956 11.4514 8.45843C11.5144 8.22126 11.5268 7.97349 11.4878 7.73122L11.4722 7.67678ZM8.3611 4.87678C8.3611 5.04011 8.40777 5.21122 8.43888 5.37455C8.50888 5.71678 8.60221 6.05122 8.69555 6.38567C8.39771 6.56203 8.158 6.82171 8.00597 7.13267C7.85394 7.44364 7.79624 7.7923 7.83999 8.13567C6.61227 8.93739 5.51565 9.92382 4.58888 11.0601C4.77484 9.82948 5.20506 8.64847 5.85422 7.58658C6.50338 6.52468 7.35837 5.60334 8.36888 4.87678H8.3611ZM8.3611 17.0957C8.05748 17.1976 7.78613 17.3778 7.57445 17.6182C7.36278 17.8585 7.21828 18.1505 7.15555 18.4646H6.65777C5.40171 16.9664 4.65048 15.1101 4.5111 13.1601L4.59666 13.0123C5.5706 11.5022 6.84386 10.2077 8.33777 9.209C8.56175 9.44292 8.84479 9.61195 9.15696 9.6982C9.46912 9.78446 9.79879 9.78473 10.1111 9.699C11.1514 11.457 12.5735 12.9588 14.2722 14.0934C14.5911 14.3034 14.9178 14.4979 15.2444 14.6846C15.2183 14.982 15.2664 15.2814 15.3844 15.5557C13.9611 16.6859 12.3193 17.5095 10.5622 17.9746C10.3585 17.5939 10.026 17.298 9.62419 17.1398C9.2224 16.9817 8.77746 16.9715 8.36888 17.1112L8.3611 17.0957ZM13.8055 21.7623C12.2237 21.7628 10.6681 21.3585 9.28666 20.5879L9.50443 20.5412C9.81394 20.4397 10.0905 20.2569 10.3053 20.012C10.5201 19.7671 10.6652 19.4691 10.7255 19.149C12.7143 18.6418 14.571 17.7135 16.17 16.4268C16.5498 16.6488 16.9983 16.7223 17.4292 16.6333C17.86 16.5442 18.2426 16.2989 18.5033 15.9446C19.6007 16.2298 20.7295 16.3762 21.8633 16.3801H22.2755C21.5252 17.9937 20.3292 19.3591 18.8285 20.3155C17.3278 21.2718 15.585 21.7792 13.8055 21.7779V21.7623ZM18.8689 14.8401C18.8681 14.5141 18.7795 14.1944 18.6122 13.9146C19.9066 12.2238 20.8074 10.2654 21.2489 8.18233C21.6378 8.36381 22.0215 8.56604 22.4 8.789C23.2554 10.8104 23.3711 13.0686 22.7267 15.1668C21.4354 15.2666 20.1364 15.1643 18.8767 14.8634L18.8689 14.8401Z" fill="black"/>
</g>
<defs>
<clipPath id="clip0_212_85">
<rect width="28" height="28" fill="white"/>
</clipPath>
</defs>
</svg>
