<svg width="276" height="58" viewBox="0 0 276 58" fill="none" xmlns="http://www.w3.org/2000/svg">
<path d="M17.0508 25.8281H5.43164L2.79492 33H0.527344L10.2129 7.40625H12.2695L21.9551 33H19.7051L17.0508 25.8281ZM6.09961 23.9824H16.3652L11.2324 10.043L6.09961 23.9824Z" fill="#555454"/>
<path d="M26.5415 10.3359L30.4746 19.7476L34.4224 10.3359H35.6235V21H34.7227V16.3564L34.7959 11.5957L30.8262 21H30.1304L26.1753 11.6323L26.2485 16.3271V21H25.3477V10.3359H26.5415Z" fill="#555454"/>
<path d="M29.3828 30.3779C29.3828 29.7871 29.1753 29.3208 28.7603 28.979C28.3452 28.6323 27.5859 28.3052 26.4824 27.9976C25.3789 27.6851 24.5732 27.3457 24.0654 26.9795C23.3428 26.4619 22.9814 25.7832 22.9814 24.9434C22.9814 24.1279 23.3159 23.4663 23.9849 22.9585C24.6587 22.4458 25.5181 22.1895 26.563 22.1895C27.271 22.1895 27.9033 22.3262 28.46 22.5996C29.0215 22.873 29.4561 23.2539 29.7637 23.7422C30.0713 24.2305 30.2251 24.7749 30.2251 25.3755H29.3169C29.3169 24.6479 29.0679 24.0645 28.5698 23.625C28.0718 23.1807 27.4028 22.9585 26.563 22.9585C25.7476 22.9585 25.0981 23.1416 24.6147 23.5078C24.1313 23.8691 23.8896 24.3428 23.8896 24.9287C23.8896 25.4707 24.1069 25.9126 24.5415 26.2544C24.9761 26.5962 25.6719 26.8989 26.6289 27.1626C27.5859 27.4214 28.311 27.6924 28.8042 27.9756C29.2974 28.2539 29.6685 28.5884 29.9175 28.979C30.1665 29.3696 30.291 29.8311 30.291 30.3633C30.291 31.2031 29.9541 31.877 29.2803 32.3848C28.6113 32.8926 27.7275 33.1465 26.6289 33.1465C25.877 33.1465 25.186 33.0122 24.5562 32.7437C23.9312 32.4751 23.4551 32.0991 23.1279 31.6157C22.8057 31.1323 22.6445 30.5781 22.6445 29.9531H23.5454C23.5454 30.7051 23.8262 31.2983 24.3877 31.7329C24.9492 32.1675 25.6963 32.3848 26.6289 32.3848C27.459 32.3848 28.1255 32.2017 28.6284 31.8354C29.1313 31.4692 29.3828 30.9834 29.3828 30.3779ZM38.2744 30.3779C38.2744 29.7871 38.0669 29.3208 37.6519 28.979C37.2368 28.6323 36.4775 28.3052 35.374 27.9976C34.2705 27.6851 33.4648 27.3457 32.957 26.9795C32.2344 26.4619 31.873 25.7832 31.873 24.9434C31.873 24.1279 32.2075 23.4663 32.8765 22.9585C33.5503 22.4458 34.4097 22.1895 35.4546 22.1895C36.1626 22.1895 36.7949 22.3262 37.3516 22.5996C37.9131 22.873 38.3477 23.2539 38.6553 23.7422C38.9629 24.2305 39.1167 24.7749 39.1167 25.3755H38.2085C38.2085 24.6479 37.9595 24.0645 37.4614 23.625C36.9634 23.1807 36.2944 22.9585 35.4546 22.9585C34.6392 22.9585 33.9897 23.1416 33.5063 23.5078C33.0229 23.8691 32.7812 24.3428 32.7812 24.9287C32.7812 25.4707 32.9985 25.9126 33.4331 26.2544C33.8677 26.5962 34.5635 26.8989 35.5205 27.1626C36.4775 27.4214 37.2026 27.6924 37.6958 27.9756C38.189 28.2539 38.5601 28.5884 38.8091 28.979C39.0581 29.3696 39.1826 29.8311 39.1826 30.3633C39.1826 31.2031 38.8457 31.877 38.1719 32.3848C37.5029 32.8926 36.6191 33.1465 35.5205 33.1465C34.7686 33.1465 34.0776 33.0122 33.4478 32.7437C32.8228 32.4751 32.3467 32.0991 32.0195 31.6157C31.6973 31.1323 31.5361 30.5781 31.5361 29.9531H32.437C32.437 30.7051 32.7178 31.2983 33.2793 31.7329C33.8408 32.1675 34.5879 32.3848 35.5205 32.3848C36.3506 32.3848 37.0171 32.2017 37.52 31.8354C38.0229 31.4692 38.2744 30.9834 38.2744 30.3779ZM47.0195 27.8877H42.0317V32.2383H47.7666V33H41.1309V22.3359H47.73V23.105H42.0317V27.126H47.0195V27.8877ZM55.7061 30.3779C55.7061 29.7871 55.4985 29.3208 55.0835 28.979C54.6685 28.6323 53.9092 28.3052 52.8057 27.9976C51.7021 27.6851 50.8965 27.3457 50.3887 26.9795C49.666 26.4619 49.3047 25.7832 49.3047 24.9434C49.3047 24.1279 49.6392 23.4663 50.3081 22.9585C50.9819 22.4458 51.8413 22.1895 52.8862 22.1895C53.5942 22.1895 54.2266 22.3262 54.7832 22.5996C55.3447 22.873 55.7793 23.2539 56.0869 23.7422C56.3945 24.2305 56.5483 24.7749 56.5483 25.3755H55.6401C55.6401 24.6479 55.3911 24.0645 54.8931 23.625C54.395 23.1807 53.7261 22.9585 52.8862 22.9585C52.0708 22.9585 51.4214 23.1416 50.938 23.5078C50.4546 23.8691 50.2129 24.3428 50.2129 24.9287C50.2129 25.4707 50.4302 25.9126 50.8647 26.2544C51.2993 26.5962 51.9951 26.8989 52.9521 27.1626C53.9092 27.4214 54.6343 27.6924 55.1274 27.9756C55.6206 28.2539 55.9917 28.5884 56.2407 28.979C56.4897 29.3696 56.6143 29.8311 56.6143 30.3633C56.6143 31.2031 56.2773 31.877 55.6035 32.3848C54.9346 32.8926 54.0508 33.1465 52.9521 33.1465C52.2002 33.1465 51.5093 33.0122 50.8794 32.7437C50.2544 32.4751 49.7783 32.0991 49.4512 31.6157C49.1289 31.1323 48.9678 30.5781 48.9678 29.9531H49.8687C49.8687 30.7051 50.1494 31.2983 50.7109 31.7329C51.2725 32.1675 52.0195 32.3848 52.9521 32.3848C53.7822 32.3848 54.4487 32.2017 54.9517 31.8354C55.4546 31.4692 55.7061 30.9834 55.7061 30.3779ZM64.5977 30.3779C64.5977 29.7871 64.3901 29.3208 63.9751 28.979C63.5601 28.6323 62.8008 28.3052 61.6973 27.9976C60.5938 27.6851 59.7881 27.3457 59.2803 26.9795C58.5576 26.4619 58.1963 25.7832 58.1963 24.9434C58.1963 24.1279 58.5308 23.4663 59.1997 22.9585C59.8735 22.4458 60.7329 22.1895 61.7778 22.1895C62.4858 22.1895 63.1182 22.3262 63.6748 22.5996C64.2363 22.873 64.6709 23.2539 64.9785 23.7422C65.2861 24.2305 65.4399 24.7749 65.4399 25.3755H64.5317C64.5317 24.6479 64.2827 24.0645 63.7847 23.625C63.2866 23.1807 62.6177 22.9585 61.7778 22.9585C60.9624 22.9585 60.313 23.1416 59.8296 23.5078C59.3462 23.8691 59.1045 24.3428 59.1045 24.9287C59.1045 25.4707 59.3218 25.9126 59.7563 26.2544C60.1909 26.5962 60.8867 26.8989 61.8438 27.1626C62.8008 27.4214 63.5259 27.6924 64.019 27.9756C64.5122 28.2539 64.8833 28.5884 65.1323 28.979C65.3813 29.3696 65.5059 29.8311 65.5059 30.3633C65.5059 31.2031 65.1689 31.877 64.4951 32.3848C63.8262 32.8926 62.9424 33.1465 61.8438 33.1465C61.0918 33.1465 60.4009 33.0122 59.771 32.7437C59.146 32.4751 58.6699 32.0991 58.3428 31.6157C58.0205 31.1323 57.8594 30.5781 57.8594 29.9531H58.7603C58.7603 30.7051 59.041 31.2983 59.6025 31.7329C60.1641 32.1675 60.9111 32.3848 61.8438 32.3848C62.6738 32.3848 63.3403 32.2017 63.8433 31.8354C64.3462 31.4692 64.5977 30.9834 64.5977 30.3779Z" fill="#555454"/>
<path d="M82 27C82 30.3137 79.3137 33 76 33C72.6863 33 70 30.3137 70 27C70 23.6863 72.6863 21 76 21C79.3137 21 82 23.6863 82 27ZM70.7932 27C70.7932 29.8756 73.1244 32.2068 76 32.2068C78.8756 32.2068 81.2068 29.8756 81.2068 27C81.2068 24.1244 78.8756 21.7932 76 21.7932C73.1244 21.7932 70.7932 24.1244 70.7932 27Z" fill="#555454"/>
<path d="M78.3811 29.4168C77.8861 29.9047 77.2575 30.235 76.5749 30.3657C75.8922 30.4965 75.1861 30.4218 74.5459 30.1513C73.9057 29.8807 73.36 29.4264 72.978 28.8457C72.596 28.2651 72.3947 27.5842 72.3996 26.8891C72.4046 26.1941 72.6155 25.5161 73.0058 24.941C73.3961 24.3658 73.9481 23.9193 74.5921 23.6579C75.2362 23.3965 75.9432 23.3319 76.624 23.4724C77.3047 23.6128 77.9285 23.952 78.4164 24.4469L77.8862 24.9697C77.5016 24.5796 77.01 24.3123 76.4735 24.2016C75.937 24.091 75.3798 24.1418 74.8722 24.3479C74.3646 24.5539 73.9295 24.9058 73.622 25.3591C73.3144 25.8124 73.1482 26.3467 73.1443 26.8944C73.1404 27.4422 73.299 27.9788 73.6001 28.4365C73.9012 28.8941 74.3312 29.2521 74.8358 29.4654C75.3403 29.6786 75.8968 29.7374 76.4348 29.6344C76.9728 29.5313 77.4682 29.2711 77.8583 28.8865L78.3811 29.4168Z" fill="#555454"/>
<path d="M92.1709 32H85.9365V31.3711L89.3477 27.502C89.9128 26.8503 90.3047 26.3125 90.5234 25.8887C90.7422 25.4648 90.8516 25.0524 90.8516 24.6514C90.8516 24.0225 90.667 23.5257 90.2979 23.1611C89.9287 22.792 89.4206 22.6074 88.7734 22.6074C88.1035 22.6074 87.5612 22.8216 87.1465 23.25C86.7363 23.6784 86.5312 24.2344 86.5312 24.918H85.7178C85.7178 24.3574 85.8431 23.847 86.0938 23.3867C86.349 22.9264 86.709 22.5664 87.1738 22.3066C87.6432 22.0423 88.1764 21.9102 88.7734 21.9102C89.6849 21.9102 90.3958 22.1494 90.9062 22.6279C91.4212 23.1064 91.6787 23.7581 91.6787 24.583C91.6787 25.0479 91.5329 25.556 91.2412 26.1074C90.9541 26.6589 90.446 27.347 89.7168 28.1719L86.9414 31.3096H92.1709V32ZM99.2141 27.8506C99.2141 29.2542 98.9566 30.3206 98.4416 31.0498C97.9267 31.7744 97.1679 32.1367 96.1653 32.1367C95.1809 32.1367 94.4267 31.7812 93.9026 31.0703C93.3785 30.3548 93.1096 29.3158 93.0959 27.9531V26.1689C93.0959 24.7699 93.3557 23.7103 93.8752 22.9902C94.3948 22.2702 95.1536 21.9102 96.1516 21.9102C97.136 21.9102 97.8879 22.2588 98.4075 22.9561C98.927 23.6488 99.1959 24.6719 99.2141 26.0254V27.8506ZM98.3938 26.0664C98.3938 24.9271 98.2069 24.0658 97.8332 23.4824C97.4641 22.8991 96.9036 22.6074 96.1516 22.6074C95.4133 22.6074 94.8573 22.8923 94.4836 23.4619C94.1099 24.0316 93.9185 24.8724 93.9094 25.9844V27.9395C93.9094 29.0742 94.1008 29.9424 94.4836 30.5439C94.871 31.1455 95.4315 31.4463 96.1653 31.4463C96.8944 31.4463 97.4459 31.1523 97.8196 30.5645C98.1978 29.9766 98.3892 29.1152 98.3938 27.9805V26.0664ZM106.722 32H100.488V31.3711L103.899 27.502C104.464 26.8503 104.856 26.3125 105.075 25.8887C105.293 25.4648 105.403 25.0524 105.403 24.6514C105.403 24.0225 105.218 23.5257 104.849 23.1611C104.48 22.792 103.972 22.6074 103.325 22.6074C102.655 22.6074 102.112 22.8216 101.698 23.25C101.288 23.6784 101.083 24.2344 101.083 24.918H100.269C100.269 24.3574 100.394 23.847 100.645 23.3867C100.9 22.9264 101.26 22.5664 101.725 22.3066C102.194 22.0423 102.728 21.9102 103.325 21.9102C104.236 21.9102 104.947 22.1494 105.458 22.6279C105.972 23.1064 106.23 23.7581 106.23 24.583C106.23 25.0479 106.084 25.556 105.792 26.1074C105.505 26.6589 104.997 27.347 104.268 28.1719L101.493 31.3096H106.722V32ZM111.571 32H110.751V23.0312L108.044 24.0361V23.2705L111.434 22.0127H111.571V32ZM119.115 27.9463V32H118.275V22.0469H121.665C122.7 22.0469 123.515 22.3112 124.112 22.8398C124.714 23.3685 125.015 24.0954 125.015 25.0205C125.015 25.9548 124.725 26.6771 124.147 27.1875C123.572 27.6934 122.738 27.9463 121.645 27.9463H119.115ZM119.115 27.2354H121.665C122.481 27.2354 123.103 27.0417 123.531 26.6543C123.96 26.2669 124.174 25.7269 124.174 25.0342C124.174 24.346 123.96 23.7992 123.531 23.3936C123.108 22.9834 122.504 22.7738 121.72 22.7646H119.115V27.2354ZM133.459 28.8965C133.345 29.9447 132.97 30.7467 132.331 31.3027C131.698 31.8587 130.853 32.1367 129.795 32.1367C129.057 32.1367 128.403 31.9521 127.833 31.583C127.268 31.2139 126.831 30.6921 126.521 30.0176C126.211 29.3385 126.054 28.5638 126.049 27.6934V26.4014C126.049 25.5173 126.204 24.7334 126.514 24.0498C126.824 23.3662 127.268 22.8398 127.847 22.4707C128.43 22.097 129.1 21.9102 129.857 21.9102C130.923 21.9102 131.764 22.1995 132.379 22.7783C132.999 23.3525 133.359 24.1478 133.459 25.1641H132.612C132.402 23.4733 131.484 22.6279 129.857 22.6279C128.955 22.6279 128.234 22.9652 127.697 23.6396C127.164 24.3141 126.897 25.2461 126.897 26.4355V27.6523C126.897 28.8008 127.157 29.7168 127.676 30.4004C128.2 31.084 128.907 31.4258 129.795 31.4258C130.675 31.4258 131.338 31.2161 131.785 30.7969C132.231 30.373 132.507 29.7396 132.612 28.8965H133.459ZM142.424 32H141.583L135.861 23.4824V32H135.013V22.0469H135.861L141.59 30.5713V22.0469H142.424V32ZM154.425 28.8965C154.311 29.9447 153.935 30.7467 153.297 31.3027C152.664 31.8587 151.818 32.1367 150.761 32.1367C150.023 32.1367 149.369 31.9521 148.799 31.583C148.234 31.2139 147.796 30.6921 147.486 30.0176C147.177 29.3385 147.019 28.5638 147.015 27.6934V26.4014C147.015 25.5173 147.17 24.7334 147.48 24.0498C147.79 23.3662 148.234 22.8398 148.813 22.4707C149.396 22.097 150.066 21.9102 150.822 21.9102C151.889 21.9102 152.73 22.1995 153.345 22.7783C153.965 23.3525 154.325 24.1478 154.425 25.1641H153.577C153.368 23.4733 152.449 22.6279 150.822 22.6279C149.92 22.6279 149.2 22.9652 148.662 23.6396C148.129 24.3141 147.862 25.2461 147.862 26.4355V27.6523C147.862 28.8008 148.122 29.7168 148.642 30.4004C149.166 31.084 149.872 31.4258 150.761 31.4258C151.64 31.4258 152.304 31.2161 152.75 30.7969C153.197 30.373 153.472 29.7396 153.577 28.8965H154.425ZM155.336 28.1924C155.336 27.4814 155.473 26.8411 155.746 26.2715C156.024 25.7018 156.414 25.2598 156.915 24.9453C157.421 24.6263 157.993 24.4668 158.631 24.4668C159.616 24.4668 160.413 24.8132 161.024 25.5059C161.635 26.194 161.94 27.1077 161.94 28.2471V28.418C161.94 29.1335 161.801 29.7783 161.523 30.3525C161.249 30.9222 160.862 31.362 160.361 31.6719C159.859 31.9818 159.287 32.1367 158.645 32.1367C157.665 32.1367 156.868 31.7926 156.252 31.1045C155.642 30.4118 155.336 29.4958 155.336 28.3564V28.1924ZM156.157 28.418C156.157 29.3021 156.385 30.029 156.84 30.5986C157.301 31.1637 157.902 31.4463 158.645 31.4463C159.383 31.4463 159.98 31.1637 160.436 30.5986C160.896 30.029 161.126 29.2793 161.126 28.3496V28.1924C161.126 27.6273 161.022 27.11 160.812 26.6406C160.602 26.1712 160.308 25.8089 159.93 25.5537C159.552 25.2939 159.119 25.1641 158.631 25.1641C157.902 25.1641 157.307 25.4512 156.847 26.0254C156.387 26.5951 156.157 27.3424 156.157 28.2676V28.418ZM163.07 31.5078C163.07 31.3483 163.12 31.2139 163.22 31.1045C163.325 30.9906 163.469 30.9336 163.651 30.9336C163.833 30.9336 163.977 30.9906 164.082 31.1045C164.186 31.2139 164.239 31.3483 164.239 31.5078C164.239 31.6673 164.186 31.7995 164.082 31.9043C163.977 32.0046 163.833 32.0547 163.651 32.0547C163.469 32.0547 163.325 32.0046 163.22 31.9043C163.12 31.7995 163.07 31.6673 163.07 31.5078ZM174.484 29.2109H169.965L168.94 32H168.058L171.824 22.0469H172.624L176.391 32H175.516L174.484 29.2109ZM170.225 28.4932H174.217L172.221 23.0723L170.225 28.4932ZM178.095 32H177.275V21.5H178.095V32ZM180.75 32H179.929V21.5H180.75V32ZM188.82 25.3008C188.647 25.2689 188.463 25.2529 188.267 25.2529C187.756 25.2529 187.323 25.3965 186.968 25.6836C186.617 25.9661 186.366 26.3786 186.216 26.9209V32H185.402V24.6035H186.202L186.216 25.7793C186.649 24.9043 187.344 24.4668 188.301 24.4668C188.529 24.4668 188.709 24.4964 188.841 24.5557L188.82 25.3008ZM190.545 32H189.725V24.6035H190.545V32ZM189.581 22.4639C189.581 22.3089 189.631 22.179 189.732 22.0742C189.832 21.9648 189.969 21.9102 190.142 21.9102C190.315 21.9102 190.452 21.9648 190.552 22.0742C190.657 22.179 190.709 22.3089 190.709 22.4639C190.709 22.6188 190.657 22.7487 190.552 22.8535C190.452 22.9583 190.315 23.0107 190.142 23.0107C189.969 23.0107 189.832 22.9583 189.732 22.8535C189.631 22.7487 189.581 22.6188 189.581 22.4639ZM191.956 28.2334C191.956 27.0758 192.211 26.1598 192.721 25.4854C193.236 24.8063 193.933 24.4668 194.813 24.4668C195.82 24.4668 196.586 24.8678 197.11 25.6699L197.151 24.6035H197.917V31.8496C197.917 32.8021 197.65 33.5563 197.117 34.1123C196.584 34.6683 195.861 34.9463 194.95 34.9463C194.435 34.9463 193.943 34.8301 193.473 34.5977C193.008 34.3698 192.641 34.0645 192.373 33.6816L192.831 33.1895C193.409 33.9004 194.098 34.2559 194.895 34.2559C195.579 34.2559 196.112 34.0531 196.495 33.6475C196.878 33.2464 197.076 32.6882 197.089 31.9727V31.043C196.565 31.7721 195.802 32.1367 194.799 32.1367C193.943 32.1367 193.254 31.7949 192.735 31.1113C192.215 30.4277 191.956 29.5049 191.956 28.3428V28.2334ZM192.783 28.377C192.783 29.3203 192.972 30.0654 193.35 30.6123C193.728 31.1546 194.262 31.4258 194.95 31.4258C195.957 31.4258 196.67 30.9746 197.089 30.0723V26.6338C196.898 26.1598 196.622 25.7998 196.262 25.5537C195.902 25.3031 195.469 25.1777 194.963 25.1777C194.275 25.1777 193.74 25.4489 193.357 25.9912C192.974 26.529 192.783 27.3242 192.783 28.377ZM200.373 25.8545C200.642 25.4124 200.986 25.0706 201.405 24.8291C201.824 24.5876 202.282 24.4668 202.779 24.4668C203.572 24.4668 204.162 24.6901 204.55 25.1367C204.937 25.5833 205.133 26.2533 205.137 27.1465V32H204.324V27.1396C204.319 26.4788 204.178 25.9867 203.9 25.6631C203.627 25.3395 203.187 25.1777 202.581 25.1777C202.075 25.1777 201.626 25.3372 201.234 25.6562C200.847 25.9707 200.56 26.3968 200.373 26.9346V32H199.559V21.5H200.373V25.8545ZM208.024 22.71V24.6035H209.556V25.2734H208.024V30.2021C208.024 30.6123 208.097 30.9176 208.243 31.1182C208.394 31.3187 208.642 31.4189 208.988 31.4189C209.125 31.4189 209.346 31.3962 209.651 31.3506L209.686 32.0205C209.471 32.098 209.18 32.1367 208.811 32.1367C208.25 32.1367 207.842 31.9749 207.587 31.6514C207.332 31.3232 207.204 30.8424 207.204 30.209V25.2734H205.844V24.6035H207.204V22.71H208.024ZM215.191 30.1201C215.191 29.7145 215.027 29.3887 214.699 29.1426C214.375 28.8965 213.885 28.7051 213.229 28.5684C212.573 28.4271 212.062 28.2676 211.698 28.0898C211.338 27.9076 211.069 27.6865 210.891 27.4268C210.718 27.167 210.631 26.8525 210.631 26.4834C210.631 25.9001 210.875 25.4193 211.363 25.041C211.85 24.6582 212.475 24.4668 213.236 24.4668C214.06 24.4668 214.721 24.6719 215.218 25.082C215.719 25.4876 215.97 26.0186 215.97 26.6748H215.15C215.15 26.2419 214.967 25.8818 214.603 25.5947C214.243 25.3076 213.787 25.1641 213.236 25.1641C212.698 25.1641 212.265 25.2848 211.937 25.5264C211.613 25.7633 211.451 26.0732 211.451 26.4561C211.451 26.8252 211.586 27.1123 211.855 27.3174C212.128 27.5179 212.623 27.7025 213.338 27.8711C214.058 28.0397 214.596 28.2197 214.951 28.4111C215.311 28.6025 215.578 28.8327 215.751 29.1016C215.924 29.3704 216.011 29.6963 216.011 30.0791C216.011 30.7035 215.758 31.2025 215.252 31.5762C214.751 31.9499 214.095 32.1367 213.283 32.1367C212.422 32.1367 211.723 31.9294 211.185 31.5146C210.652 31.0954 210.385 30.5667 210.385 29.9287H211.205C211.237 30.4072 211.438 30.7809 211.807 31.0498C212.181 31.3141 212.673 31.4463 213.283 31.4463C213.853 31.4463 214.313 31.321 214.664 31.0703C215.015 30.8197 215.191 30.5029 215.191 30.1201ZM223.699 25.3008C223.526 25.2689 223.341 25.2529 223.145 25.2529C222.635 25.2529 222.202 25.3965 221.846 25.6836C221.496 25.9661 221.245 26.3786 221.094 26.9209V32H220.281V24.6035H221.081L221.094 25.7793C221.527 24.9043 222.222 24.4668 223.179 24.4668C223.407 24.4668 223.587 24.4964 223.719 24.5557L223.699 25.3008ZM227.235 32.1367C226.606 32.1367 226.037 31.9818 225.526 31.6719C225.021 31.362 224.626 30.9313 224.344 30.3799C224.061 29.8239 223.92 29.2018 223.92 28.5137V28.2197C223.92 27.5088 224.057 26.8685 224.33 26.2988C224.608 25.7292 224.993 25.2826 225.485 24.959C225.978 24.6309 226.511 24.4668 227.085 24.4668C227.983 24.4668 228.694 24.7744 229.218 25.3896C229.746 26.0003 230.011 26.8366 230.011 27.8984V28.3564H224.733V28.5137C224.733 29.3522 224.973 30.0518 225.451 30.6123C225.934 31.1683 226.54 31.4463 227.27 31.4463C227.707 31.4463 228.092 31.3665 228.425 31.207C228.762 31.0475 229.067 30.7923 229.341 30.4414L229.854 30.8311C229.252 31.7015 228.379 32.1367 227.235 32.1367ZM227.085 25.1641C226.47 25.1641 225.95 25.3896 225.526 25.8408C225.107 26.292 224.852 26.8981 224.761 27.6592H229.197V27.5703C229.174 26.8594 228.972 26.2806 228.589 25.834C228.206 25.3874 227.705 25.1641 227.085 25.1641ZM235.543 30.1201C235.543 29.7145 235.379 29.3887 235.051 29.1426C234.727 28.8965 234.238 28.7051 233.581 28.5684C232.925 28.4271 232.415 28.2676 232.05 28.0898C231.69 27.9076 231.421 27.6865 231.243 27.4268C231.07 27.167 230.984 26.8525 230.984 26.4834C230.984 25.9001 231.227 25.4193 231.715 25.041C232.203 24.6582 232.827 24.4668 233.588 24.4668C234.413 24.4668 235.074 24.6719 235.571 25.082C236.072 25.4876 236.322 26.0186 236.322 26.6748H235.502C235.502 26.2419 235.32 25.8818 234.955 25.5947C234.595 25.3076 234.14 25.1641 233.588 25.1641C233.05 25.1641 232.617 25.2848 232.289 25.5264C231.966 25.7633 231.804 26.0732 231.804 26.4561C231.804 26.8252 231.938 27.1123 232.207 27.3174C232.481 27.5179 232.975 27.7025 233.691 27.8711C234.411 28.0397 234.948 28.2197 235.304 28.4111C235.664 28.6025 235.931 28.8327 236.104 29.1016C236.277 29.3704 236.364 29.6963 236.364 30.0791C236.364 30.7035 236.111 31.2025 235.605 31.5762C235.103 31.9499 234.447 32.1367 233.636 32.1367C232.775 32.1367 232.075 31.9294 231.537 31.5146C231.004 31.0954 230.738 30.5667 230.738 29.9287H231.558C231.59 30.4072 231.79 30.7809 232.159 31.0498C232.533 31.3141 233.025 31.4463 233.636 31.4463C234.206 31.4463 234.666 31.321 235.017 31.0703C235.368 30.8197 235.543 30.5029 235.543 30.1201ZM240.583 32.1367C239.955 32.1367 239.385 31.9818 238.874 31.6719C238.369 31.362 237.974 30.9313 237.692 30.3799C237.409 29.8239 237.268 29.2018 237.268 28.5137V28.2197C237.268 27.5088 237.405 26.8685 237.678 26.2988C237.956 25.7292 238.341 25.2826 238.833 24.959C239.326 24.6309 239.859 24.4668 240.433 24.4668C241.331 24.4668 242.042 24.7744 242.566 25.3896C243.095 26.0003 243.359 26.8366 243.359 27.8984V28.3564H238.082V28.5137C238.082 29.3522 238.321 30.0518 238.799 30.6123C239.282 31.1683 239.888 31.4463 240.618 31.4463C241.055 31.4463 241.44 31.3665 241.773 31.207C242.11 31.0475 242.416 30.7923 242.689 30.4414L243.202 30.8311C242.6 31.7015 241.727 32.1367 240.583 32.1367ZM240.433 25.1641C239.818 25.1641 239.298 25.3896 238.874 25.8408C238.455 26.292 238.2 26.8981 238.109 27.6592H242.545V27.5703C242.523 26.8594 242.32 26.2806 241.937 25.834C241.554 25.3874 241.053 25.1641 240.433 25.1641ZM247.88 25.3008C247.706 25.2689 247.522 25.2529 247.326 25.2529C246.815 25.2529 246.383 25.3965 246.027 25.6836C245.676 25.9661 245.426 26.3786 245.275 26.9209V32H244.462V24.6035H245.261L245.275 25.7793C245.708 24.9043 246.403 24.4668 247.36 24.4668C247.588 24.4668 247.768 24.4964 247.9 24.5557L247.88 25.3008ZM251.115 30.8721L253.364 24.6035H254.205L251.443 32H250.78L248.005 24.6035H248.846L251.115 30.8721ZM257.83 32.1367C257.201 32.1367 256.632 31.9818 256.121 31.6719C255.615 31.362 255.221 30.9313 254.939 30.3799C254.656 29.8239 254.515 29.2018 254.515 28.5137V28.2197C254.515 27.5088 254.652 26.8685 254.925 26.2988C255.203 25.7292 255.588 25.2826 256.08 24.959C256.572 24.6309 257.106 24.4668 257.68 24.4668C258.578 24.4668 259.289 24.7744 259.813 25.3896C260.341 26.0003 260.606 26.8366 260.606 27.8984V28.3564H255.328V28.5137C255.328 29.3522 255.568 30.0518 256.046 30.6123C256.529 31.1683 257.135 31.4463 257.864 31.4463C258.302 31.4463 258.687 31.3665 259.02 31.207C259.357 31.0475 259.662 30.7923 259.936 30.4414L260.448 30.8311C259.847 31.7015 258.974 32.1367 257.83 32.1367ZM257.68 25.1641C257.065 25.1641 256.545 25.3896 256.121 25.8408C255.702 26.292 255.447 26.8981 255.356 27.6592H259.792V27.5703C259.769 26.8594 259.567 26.2806 259.184 25.834C258.801 25.3874 258.3 25.1641 257.68 25.1641ZM261.38 28.2334C261.38 27.085 261.636 26.1712 262.146 25.4922C262.661 24.8086 263.358 24.4668 264.238 24.4668C265.236 24.4668 265.997 24.861 266.521 25.6494V21.5H267.334V32H266.569L266.535 31.0156C266.011 31.763 265.24 32.1367 264.224 32.1367C263.372 32.1367 262.684 31.7949 262.16 31.1113C261.64 30.4232 261.38 29.4958 261.38 28.3291V28.2334ZM262.207 28.377C262.207 29.3203 262.397 30.0654 262.775 30.6123C263.153 31.1546 263.686 31.4258 264.374 31.4258C265.382 31.4258 266.097 30.9814 266.521 30.0928V26.6201C266.097 25.6585 265.386 25.1777 264.388 25.1777C263.7 25.1777 263.164 25.4489 262.782 25.9912C262.399 26.529 262.207 27.3242 262.207 28.377ZM268.923 31.5078C268.923 31.3483 268.973 31.2139 269.073 31.1045C269.178 30.9906 269.321 30.9336 269.504 30.9336C269.686 30.9336 269.829 30.9906 269.934 31.1045C270.039 31.2139 270.091 31.3483 270.091 31.5078C270.091 31.6673 270.039 31.7995 269.934 31.9043C269.829 32.0046 269.686 32.0547 269.504 32.0547C269.321 32.0547 269.178 32.0046 269.073 31.9043C268.973 31.7995 268.923 31.6673 268.923 31.5078Z" fill="#555454"/>
</svg>
