<svg width="182" height="28" viewBox="0 0 182 28" fill="none" xmlns="http://www.w3.org/2000/svg">
<path d="M1.25781 18V8.04688H4.04004C4.85579 8.04688 5.58724 8.23372 6.23438 8.60742C6.88151 8.97656 7.38509 9.50749 7.74512 10.2002C8.1097 10.8929 8.29199 11.6813 8.29199 12.5654V13.4814C8.29199 14.3701 8.11198 15.1585 7.75195 15.8467C7.39193 16.5348 6.88379 17.0658 6.22754 17.4395C5.57585 17.8132 4.82617 18 3.97852 18H1.25781ZM2.09863 8.76465V17.2891H3.98535C5.03353 17.2891 5.87435 16.9427 6.50781 16.25C7.14128 15.5527 7.45801 14.6117 7.45801 13.4268V12.5518C7.45801 11.4079 7.14583 10.4919 6.52148 9.80371C5.89714 9.11556 5.07454 8.76921 4.05371 8.76465H2.09863ZM12.9645 18.1367C12.3356 18.1367 11.7659 17.9818 11.2555 17.6719C10.7496 17.362 10.3554 16.9313 10.0729 16.3799C9.79034 15.8239 9.64906 15.2018 9.64906 14.5137V14.2197C9.64906 13.5088 9.78578 12.8685 10.0592 12.2988C10.3372 11.7292 10.7223 11.2826 11.2145 10.959C11.7067 10.6309 12.2399 10.4668 12.8141 10.4668C13.7119 10.4668 14.4228 10.7744 14.9469 11.3896C15.4756 12.0003 15.7399 12.8366 15.7399 13.8984V14.3564H10.4625V14.5137C10.4625 15.3522 10.7018 16.0518 11.1803 16.6123C11.6634 17.1683 12.2695 17.4463 12.9987 17.4463C13.4362 17.4463 13.8213 17.3665 14.1539 17.207C14.4912 17.0475 14.7965 16.7923 15.07 16.4414L15.5827 16.8311C14.9811 17.7015 14.1084 18.1367 12.9645 18.1367ZM12.8141 11.1641C12.1989 11.1641 11.6793 11.3896 11.2555 11.8408C10.8362 12.292 10.581 12.8981 10.4899 13.6592H14.9264V13.5703C14.9036 12.8594 14.7008 12.2806 14.318 11.834C13.9352 11.3874 13.4339 11.1641 12.8141 11.1641ZM19.4007 16.8721L21.6497 10.6035H22.4905L19.7288 18H19.0657L16.2903 10.6035H17.1311L19.4007 16.8721ZM26.4657 18.1367C25.8368 18.1367 25.2672 17.9818 24.7568 17.6719C24.2509 17.362 23.8567 16.9313 23.5741 16.3799C23.2916 15.8239 23.1503 15.2018 23.1503 14.5137V14.2197C23.1503 13.5088 23.287 12.8685 23.5605 12.2988C23.8385 11.7292 24.2236 11.2826 24.7157 10.959C25.2079 10.6309 25.7411 10.4668 26.3154 10.4668C27.2131 10.4668 27.9241 10.7744 28.4482 11.3896C28.9768 12.0003 29.2411 12.8366 29.2411 13.8984V14.3564H23.9638V14.5137C23.9638 15.3522 24.203 16.0518 24.6816 16.6123C25.1646 17.1683 25.7708 17.4463 26.4999 17.4463C26.9374 17.4463 27.3225 17.3665 27.6552 17.207C27.9924 17.0475 28.2978 16.7923 28.5712 16.4414L29.0839 16.8311C28.4823 17.7015 27.6096 18.1367 26.4657 18.1367ZM26.3154 11.1641C25.7001 11.1641 25.1806 11.3896 24.7568 11.8408C24.3375 12.292 24.0823 12.8981 23.9911 13.6592H28.4277V13.5703C28.4049 12.8594 28.2021 12.2806 27.8193 11.834C27.4364 11.3874 26.9351 11.1641 26.3154 11.1641ZM31.6099 18H30.7896V7.5H31.6099V18ZM33.2473 14.1924C33.2473 13.4814 33.384 12.8411 33.6574 12.2715C33.9354 11.7018 34.3251 11.2598 34.8264 10.9453C35.3322 10.6263 35.9042 10.4668 36.5422 10.4668C37.5266 10.4668 38.3241 10.8132 38.9348 11.5059C39.5454 12.194 39.8508 13.1077 39.8508 14.2471V14.418C39.8508 15.1335 39.7118 15.7783 39.4338 16.3525C39.1604 16.9222 38.773 17.362 38.2717 17.6719C37.7704 17.9818 37.1984 18.1367 36.5559 18.1367C35.576 18.1367 34.7785 17.7926 34.1633 17.1045C33.5526 16.4118 33.2473 15.4958 33.2473 14.3564V14.1924ZM34.0676 14.418C34.0676 15.3021 34.2954 16.029 34.7512 16.5986C35.2115 17.1637 35.813 17.4463 36.5559 17.4463C37.2941 17.4463 37.8911 17.1637 38.3469 16.5986C38.8072 16.029 39.0373 15.2793 39.0373 14.3496V14.1924C39.0373 13.6273 38.9325 13.11 38.7229 12.6406C38.5132 12.1712 38.2193 11.8089 37.841 11.5537C37.4628 11.2939 37.0298 11.1641 36.5422 11.1641C35.813 11.1641 35.2183 11.4512 34.758 12.0254C34.2977 12.5951 34.0676 13.3424 34.0676 14.2676V14.418ZM47.3534 14.377C47.3534 15.5299 47.0982 16.446 46.5877 17.125C46.0773 17.7995 45.3937 18.1367 44.537 18.1367C43.5252 18.1367 42.7505 17.7812 42.2127 17.0703V20.8438H41.3993V10.6035H42.158L42.1991 11.6494C42.7323 10.861 43.5047 10.4668 44.5164 10.4668C45.4006 10.4668 46.0933 10.8018 46.5946 11.4717C47.1004 12.1416 47.3534 13.0713 47.3534 14.2607V14.377ZM46.533 14.2334C46.533 13.29 46.3394 12.5449 45.952 11.998C45.5646 11.4512 45.0246 11.1777 44.3319 11.1777C43.8306 11.1777 43.3999 11.2985 43.0399 11.54C42.6799 11.7816 42.4041 12.1325 42.2127 12.5928V16.1406C42.4087 16.5645 42.689 16.888 43.0536 17.1113C43.4181 17.3346 43.8488 17.4463 44.3455 17.4463C45.0337 17.4463 45.5692 17.1729 45.952 16.626C46.3394 16.0745 46.533 15.277 46.533 14.2334ZM51.896 18.1367C51.2671 18.1367 50.6974 17.9818 50.187 17.6719C49.6811 17.362 49.2869 16.9313 49.0044 16.3799C48.7218 15.8239 48.5805 15.2018 48.5805 14.5137V14.2197C48.5805 13.5088 48.7173 12.8685 48.9907 12.2988C49.2687 11.7292 49.6538 11.2826 50.146 10.959C50.6382 10.6309 51.1714 10.4668 51.7456 10.4668C52.6434 10.4668 53.3543 10.7744 53.8784 11.3896C54.407 12.0003 54.6714 12.8366 54.6714 13.8984V14.3564H49.394V14.5137C49.394 15.3522 49.6333 16.0518 50.1118 16.6123C50.5949 17.1683 51.201 17.4463 51.9302 17.4463C52.3677 17.4463 52.7527 17.3665 53.0854 17.207C53.4227 17.0475 53.728 16.7923 54.0014 16.4414L54.5141 16.8311C53.9126 17.7015 53.0399 18.1367 51.896 18.1367ZM51.7456 11.1641C51.1304 11.1641 50.6108 11.3896 50.187 11.8408C49.7677 12.292 49.5125 12.8981 49.4214 13.6592H53.8579V13.5703C53.8351 12.8594 53.6323 12.2806 53.2495 11.834C52.8667 11.3874 52.3654 11.1641 51.7456 11.1641ZM55.796 14.2334C55.796 13.085 56.0512 12.1712 56.5616 11.4922C57.0766 10.8086 57.7739 10.4668 58.6534 10.4668C59.6515 10.4668 60.4126 10.861 60.9366 11.6494V7.5H61.7501V18H60.9845L60.9503 17.0156C60.4262 17.763 59.656 18.1367 58.6398 18.1367C57.7876 18.1367 57.0994 17.7949 56.5753 17.1113C56.0558 16.4232 55.796 15.4958 55.796 14.3291V14.2334ZM56.6232 14.377C56.6232 15.3203 56.8123 16.0654 57.1905 16.6123C57.5688 17.1546 58.102 17.4258 58.7902 17.4258C59.7973 17.4258 60.5128 16.9814 60.9366 16.0928V12.6201C60.5128 11.6585 59.8019 11.1777 58.8038 11.1777C58.1157 11.1777 57.5802 11.4489 57.1974 11.9912C56.8146 12.529 56.6232 13.3242 56.6232 14.377ZM72.9818 14.377C72.9818 15.5299 72.7266 16.446 72.2162 17.125C71.7058 17.7995 71.0199 18.1367 70.1586 18.1367C69.1286 18.1367 68.3493 17.7539 67.8207 16.9883L67.7865 18H67.0209V7.5H67.8344V11.6768C68.3539 10.8701 69.1241 10.4668 70.1449 10.4668C71.0199 10.4668 71.7104 10.8018 72.2162 11.4717C72.7266 12.137 72.9818 13.0645 72.9818 14.2539V14.377ZM72.1615 14.2334C72.1615 13.2581 71.9724 12.5062 71.5941 11.9775C71.2159 11.4443 70.6827 11.1777 69.9945 11.1777C69.4704 11.1777 69.0261 11.3076 68.6615 11.5674C68.2969 11.8226 68.0212 12.1986 67.8344 12.6953V16.0312C68.2445 16.9609 68.9691 17.4258 70.0082 17.4258C70.6827 17.4258 71.209 17.1592 71.5873 16.626C71.9701 16.0928 72.1615 15.2952 72.1615 14.2334ZM76.9161 16.8242L79.0762 10.6035H79.958L76.7998 19.2578L76.6358 19.6406C76.2302 20.5384 75.6036 20.9873 74.7559 20.9873C74.5599 20.9873 74.3503 20.9554 74.127 20.8916L74.1202 20.2148L74.544 20.2559C74.945 20.2559 75.2686 20.1556 75.5147 19.9551C75.7653 19.7591 75.9773 19.4196 76.1504 18.9365L76.5127 17.9385L73.7237 10.6035H74.6192L76.9161 16.8242Z" fill="#555454"/>
<path d="M89.6797 17.4229C90.3044 17.4229 90.8177 17.3579 91.2197 17.228C91.9372 16.9868 92.5247 16.5229 92.9824 15.8364C93.3473 15.286 93.6102 14.5809 93.771 13.7212C93.8638 13.2078 93.9102 12.7316 93.9102 12.2925C93.9102 10.604 93.5731 9.29281 92.8989 8.35889C92.231 7.42497 91.1517 6.95801 89.6611 6.95801H86.3862V17.4229H89.6797ZM84.5308 5.37158H90.0508C91.9248 5.37158 93.3783 6.03646 94.4111 7.36621C95.3327 8.56608 95.7935 10.103 95.7935 11.9771C95.7935 13.4243 95.5213 14.7324 94.9771 15.9014C94.0184 17.9671 92.3701 19 90.0322 19H84.5308V5.37158Z" fill="#555454"/>
<line x1="96.4456" y1="20.893" x2="102.015" y2="3.01775" stroke="#4A4949" stroke-width="1.1"/>
<line x1="102.628" y1="3.06065" x2="108.048" y2="27.0933" stroke="#4A4949" stroke-width="1.1"/>
<circle cx="102.288" cy="3.77273" r="1.27273" fill="#FFFCFC" stroke="#4A4949"/>
<circle cx="107.802" cy="26.2268" r="1.27273" fill="#FFFCFC" stroke="#4A4949"/>
<circle cx="96.7727" cy="20.3186" r="1.27273" fill="#FFFCFC" stroke="#4A4949"/>
<path d="M109.225 8.06396H110.811V9.47412C111.281 8.89274 111.779 8.47526 112.305 8.22168C112.83 7.9681 113.415 7.84131 114.058 7.84131C115.468 7.84131 116.421 8.33301 116.916 9.31641C117.188 9.85449 117.324 10.6245 117.324 11.6265V18H115.626V11.7378C115.626 11.1317 115.536 10.6431 115.357 10.272C115.06 9.65348 114.522 9.34424 113.743 9.34424C113.347 9.34424 113.022 9.38444 112.769 9.46484C112.311 9.60091 111.909 9.87305 111.562 10.2812C111.284 10.609 111.102 10.9492 111.015 11.3018C110.935 11.6481 110.895 12.146 110.895 12.7954V18H109.225V8.06396ZM122.126 15.356C122.126 15.8384 122.302 16.2188 122.655 16.4971C123.007 16.7754 123.425 16.9146 123.907 16.9146C124.495 16.9146 125.064 16.7785 125.614 16.5063C126.542 16.0549 127.006 15.3158 127.006 14.2891V12.9438C126.802 13.0737 126.539 13.182 126.217 13.2686C125.896 13.3551 125.58 13.417 125.271 13.4541L124.26 13.584C123.654 13.6644 123.199 13.7912 122.896 13.9644C122.383 14.255 122.126 14.7189 122.126 15.356ZM126.171 11.979C126.554 11.9295 126.811 11.7687 126.941 11.4966C127.015 11.3481 127.052 11.1348 127.052 10.8564C127.052 10.2874 126.848 9.87614 126.44 9.62256C126.038 9.36279 125.46 9.23291 124.705 9.23291C123.833 9.23291 123.215 9.46794 122.85 9.93799C122.646 10.1978 122.513 10.5843 122.451 11.0977H120.892C120.923 9.87305 121.319 9.02262 122.08 8.54639C122.847 8.06396 123.734 7.82275 124.742 7.82275C125.911 7.82275 126.861 8.04541 127.59 8.49072C128.314 8.93604 128.676 9.62874 128.676 10.5688V16.293C128.676 16.4661 128.71 16.6053 128.778 16.7104C128.852 16.8156 129.004 16.8682 129.233 16.8682C129.307 16.8682 129.39 16.8651 129.483 16.8589C129.576 16.8465 129.675 16.8311 129.78 16.8125V18.0464C129.52 18.1206 129.322 18.167 129.186 18.1855C129.05 18.2041 128.864 18.2134 128.629 18.2134C128.054 18.2134 127.637 18.0093 127.377 17.6011C127.241 17.3846 127.145 17.0785 127.089 16.6826C126.749 17.1279 126.261 17.5145 125.624 17.8423C124.987 18.1701 124.285 18.334 123.518 18.334C122.596 18.334 121.842 18.0557 121.254 17.499C120.673 16.9362 120.382 16.2342 120.382 15.3931C120.382 14.4715 120.67 13.7572 121.245 13.25C121.82 12.7428 122.574 12.4305 123.508 12.313L126.171 11.979ZM132.513 4.37158H134.183V18H132.513V4.37158ZM143.949 8.06396H145.795C145.56 8.70101 145.038 10.1545 144.227 12.4243C143.621 14.1313 143.114 15.5229 142.706 16.5991C141.741 19.1349 141.061 20.6812 140.665 21.2378C140.269 21.7944 139.589 22.0728 138.624 22.0728C138.389 22.0728 138.206 22.0635 138.076 22.0449C137.953 22.0264 137.798 21.9924 137.613 21.9429V20.4214C137.903 20.5018 138.114 20.5513 138.243 20.5698C138.373 20.5884 138.488 20.5977 138.587 20.5977C138.896 20.5977 139.122 20.5451 139.264 20.4399C139.412 20.341 139.536 20.2173 139.635 20.0688C139.666 20.0194 139.777 19.7658 139.969 19.3081C140.161 18.8504 140.3 18.5103 140.386 18.2876L136.713 8.06396H138.605L141.268 16.1538L143.949 8.06396ZM148.621 5.29004H150.31V8.06396H151.896V9.42773H150.31V15.9126C150.31 16.259 150.427 16.4909 150.662 16.6084C150.792 16.6764 151.009 16.7104 151.312 16.7104C151.392 16.7104 151.479 16.7104 151.572 16.7104C151.664 16.7043 151.773 16.695 151.896 16.6826V18C151.705 18.0557 151.504 18.0959 151.293 18.1206C151.089 18.1453 150.867 18.1577 150.625 18.1577C149.846 18.1577 149.317 17.9598 149.039 17.564C148.761 17.1619 148.621 16.6424 148.621 16.0054V9.42773H147.276V8.06396H148.621V5.29004ZM154.621 8.11035H156.318V18H154.621V8.11035ZM154.621 4.37158H156.318V6.26416H154.621V4.37158ZM163.728 7.77637C164.847 7.77637 165.756 8.0485 166.455 8.59277C167.16 9.13704 167.584 10.0741 167.726 11.4038H166.103C166.004 10.7915 165.778 10.2843 165.425 9.88232C165.073 9.47412 164.507 9.27002 163.728 9.27002C162.664 9.27002 161.903 9.78955 161.445 10.8286C161.148 11.5028 161 12.3346 161 13.3242C161 14.32 161.21 15.158 161.631 15.8384C162.051 16.5187 162.713 16.8589 163.616 16.8589C164.309 16.8589 164.856 16.6486 165.258 16.228C165.666 15.8013 165.948 15.2199 166.103 14.4839H167.726C167.541 15.8013 167.077 16.7661 166.334 17.3784C165.592 17.9845 164.643 18.2876 163.486 18.2876C162.187 18.2876 161.152 17.8145 160.378 16.8682C159.605 15.9157 159.219 14.7282 159.219 13.3057C159.219 11.5615 159.642 10.2039 160.49 9.23291C161.337 8.26188 162.416 7.77637 163.728 7.77637ZM171.721 15.356C171.721 15.8384 171.898 16.2188 172.25 16.4971C172.603 16.7754 173.02 16.9146 173.502 16.9146C174.09 16.9146 174.659 16.7785 175.21 16.5063C176.137 16.0549 176.601 15.3158 176.601 14.2891V12.9438C176.397 13.0737 176.134 13.182 175.813 13.2686C175.491 13.3551 175.176 13.417 174.866 13.4541L173.855 13.584C173.249 13.6644 172.794 13.7912 172.491 13.9644C171.978 14.255 171.721 14.7189 171.721 15.356ZM175.766 11.979C176.15 11.9295 176.406 11.7687 176.536 11.4966C176.61 11.3481 176.648 11.1348 176.648 10.8564C176.648 10.2874 176.443 9.87614 176.035 9.62256C175.633 9.36279 175.055 9.23291 174.3 9.23291C173.428 9.23291 172.81 9.46794 172.445 9.93799C172.241 10.1978 172.108 10.5843 172.046 11.0977H170.487C170.518 9.87305 170.914 9.02262 171.675 8.54639C172.442 8.06396 173.329 7.82275 174.337 7.82275C175.506 7.82275 176.456 8.04541 177.186 8.49072C177.909 8.93604 178.271 9.62874 178.271 10.5688V16.293C178.271 16.4661 178.305 16.6053 178.373 16.7104C178.447 16.8156 178.599 16.8682 178.828 16.8682C178.902 16.8682 178.985 16.8651 179.078 16.8589C179.171 16.8465 179.27 16.8311 179.375 16.8125V18.0464C179.115 18.1206 178.917 18.167 178.781 18.1855C178.645 18.2041 178.46 18.2134 178.225 18.2134C177.649 18.2134 177.232 18.0093 176.972 17.6011C176.836 17.3846 176.74 17.0785 176.685 16.6826C176.344 17.1279 175.856 17.5145 175.219 17.8423C174.582 18.1701 173.88 18.334 173.113 18.334C172.191 18.334 171.437 18.0557 170.849 17.499C170.268 16.9362 169.977 16.2342 169.977 15.3931C169.977 14.4715 170.265 13.7572 170.84 13.25C171.415 12.7428 172.17 12.4305 173.104 12.313L175.766 11.979Z" fill="#4A4949"/>
<path d="M156.749 4.775C156.749 5.47916 156.178 6.05 155.474 6.05C154.77 6.05 154.199 5.47916 154.199 4.775C154.199 4.07084 154.77 3.5 155.474 3.5C156.178 3.5 156.749 4.07084 156.749 4.775Z" fill="white" stroke="#4A4949"/>
</svg>
