<svg width="98" height="98" viewBox="0 0 98 98" fill="none" xmlns="http://www.w3.org/2000/svg">
<circle cx="49" cy="49" r="49" fill="#4A4949"/>
<g clip-path="url(#clip0)">
<path d="M74.5647 42.056C74.5189 41.3816 73.921 40.8585 73.2179 40.8778C69.1086 40.9862 63.387 40.6364 59.9613 38.4212V35.1077C59.9613 34.5995 59.7561 34.1022 59.3692 33.7265L50.0953 24.7451C49.7079 24.3694 49.1827 24.1641 48.6447 24.1641H32.113C30.9867 24.1641 30.0704 25.0441 30.0704 26.126V51.8851C30.0704 52.2815 30.405 52.6029 30.8177 52.6029C31.2304 52.6029 31.565 52.2815 31.565 51.8851V26.126C31.565 25.8357 31.8108 25.5996 32.113 25.5996H48.4535V33.8129C48.4535 34.6039 49.1235 35.2474 49.947 35.2474H58.4666V38.4225C55.0534 40.6317 49.3422 40.9857 45.2121 40.8778C44.5083 40.859 43.9111 41.3817 43.8654 42.0562C43.1203 53.1031 47.2655 65.9174 58.4666 69.095V71.2021C58.4666 71.4924 58.2208 71.7285 57.9186 71.7285H32.1129C31.8107 71.7285 31.5649 71.4924 31.5649 71.2021V54.7562C31.5649 54.3598 31.2303 54.0385 30.8176 54.0385C30.4049 54.0385 30.0703 54.3598 30.0703 54.7562V71.2021C30.0703 72.284 30.9866 73.1641 32.1129 73.1641H57.9186C59.0449 73.1641 59.9612 72.284 59.9612 71.2021V69.0954C65.5695 67.5033 69.8463 63.3684 72.3321 57.1296C72.4795 56.7593 72.2867 56.3443 71.9013 56.2027C71.5161 56.061 71.0837 56.2462 70.9363 56.6165C69.3147 60.6864 66.0063 65.9205 59.4539 67.7435C59.299 67.7867 59.1313 67.7866 58.9759 67.7434C48.5329 64.8406 44.7003 52.7355 45.3459 42.3171C49.7236 42.4174 55.5419 41.9936 59.215 39.669C62.8865 41.9894 68.6915 42.419 73.0841 42.3171C73.3189 46.068 72.9208 50.2029 71.8434 53.9533C71.7336 54.3354 71.9671 54.7307 72.365 54.8361C72.7626 54.9414 73.1743 54.7173 73.2841 54.3351C74.4245 50.3657 74.8323 45.996 74.5647 42.056ZM49.9481 33.8129V26.6413C50.4549 27.1321 55.0958 31.6267 57.3523 33.8121L49.9481 33.8129Z" fill="white"/>
<path d="M33.8742 65.8105H47.4247C47.8374 65.8105 48.172 65.4892 48.172 65.0928C48.172 64.6964 47.8374 64.375 47.4247 64.375H33.8742C33.4615 64.375 33.127 64.6964 33.127 65.0928C33.127 65.4892 33.4615 65.8105 33.8742 65.8105Z" fill="white"/>
<path d="M33.8742 61.1035H44.7844C45.1971 61.1035 45.5317 60.7821 45.5317 60.3857C45.5317 59.9893 45.1971 59.668 44.7844 59.668H33.8742C33.4615 59.668 33.127 59.9893 33.127 60.3857C33.127 60.7821 33.4615 61.1035 33.8742 61.1035Z" fill="white"/>
<path d="M33.8742 56.3965H42.6422C43.0549 56.3965 43.3895 56.0751 43.3895 55.6787C43.3895 55.2823 43.0549 54.9609 42.6422 54.9609H33.8742C33.4615 54.9609 33.127 55.2823 33.127 55.6787C33.127 56.0751 33.4615 56.3965 33.8742 56.3965Z" fill="white"/>
<path d="M33.8742 51.6895H41.6957C42.1084 51.6895 42.4429 51.3681 42.4429 50.9717C42.4429 50.5753 42.1084 50.2539 41.6957 50.2539H33.8742C33.4615 50.2539 33.127 50.5753 33.127 50.9717C33.127 51.3681 33.4615 51.6895 33.8742 51.6895Z" fill="white"/>
<path d="M33.8742 46.9824H41.1975C41.6102 46.9824 41.9447 46.6611 41.9447 46.2646C41.9447 45.8682 41.6102 45.5469 41.1975 45.5469H33.8742C33.4615 45.5469 33.127 45.8682 33.127 46.2646C33.127 46.6611 33.4615 46.9824 33.8742 46.9824Z" fill="white"/>
<path d="M33.8742 42.2754H41.0978C41.5105 42.2754 41.8451 41.954 41.8451 41.5576C41.8451 41.1612 41.5105 40.8398 41.0978 40.8398H33.8742C33.4615 40.8398 33.127 41.1612 33.127 41.5576C33.127 41.954 33.4615 42.2754 33.8742 42.2754Z" fill="white"/>
<path d="M33.8742 37.5684H46.7439C47.1566 37.5684 47.4912 37.247 47.4912 36.8506C47.4912 36.4542 47.1566 36.1328 46.7439 36.1328H33.8742C33.4615 36.1328 33.127 36.4542 33.127 36.8506C33.127 37.247 33.4615 37.5684 33.8742 37.5684Z" fill="white"/>
<path d="M33.8742 32.9209H44.1367C44.5494 32.9209 44.884 32.5995 44.884 32.2031C44.884 31.8067 44.5494 31.4854 44.1367 31.4854H33.8742C33.4615 31.4854 33.127 31.8067 33.127 32.2031C33.127 32.5995 33.4615 32.9209 33.8742 32.9209Z" fill="white"/>
<g clip-path="url(#clip1)">
<path d="M61.3241 48.2048C59.2761 46.2377 55.943 46.2377 53.895 48.2048C51.8475 50.1724 51.8475 53.3735 53.895 55.3411C55.7188 57.0924 58.5592 57.28 60.6058 55.9125C60.6488 56.1082 60.7474 56.295 60.9059 56.4472L63.8884 59.312C64.323 59.7286 65.0253 59.7286 65.4577 59.312C65.8919 58.8949 65.8919 58.2203 65.4577 57.8046L62.4753 54.939C62.3177 54.788 62.1228 54.6929 61.919 54.6516C63.3436 52.6853 63.1483 49.9574 61.3241 48.2048ZM60.3825 54.4366C58.8535 55.9052 56.3652 55.9052 54.8366 54.4366C53.3085 52.968 53.3085 50.5783 54.8366 49.1097C56.3652 47.6415 58.8535 47.6415 60.3825 49.1097C61.9114 50.5783 61.9114 52.968 60.3825 54.4366Z" fill="white"/>
</g>
</g>
<defs>
<clipPath id="clip0">
<rect width="51.0137" height="49" fill="white" transform="translate(26.8496 24.1641)"/>
</clipPath>
<clipPath id="clip1">
<rect width="13.4247" height="12.8947" fill="white" transform="translate(52.3574 46.7295)"/>
</clipPath>
</defs>
</svg>
